<?xml version="1.0" encoding="UTF-8" standalone="no"?>
<!-- Created with Inkscape (http://www.inkscape.org/) -->

<svg
   width="205.88994mm"
   height="86.49556mm"
   viewBox="0 0 205.88994 86.49556"
   version="1.1"
   id="svg5"
   xml:space="preserve"
   xmlns="http://www.w3.org/2000/svg"
   xmlns:svg="http://www.w3.org/2000/svg"><defs
     id="defs2" /><g
     id="layer1"
     transform="translate(-2.3800128,-51.301024)"><path
       style="fill:#000000;stroke-width:0.0629248"
       d="m 92.291416,137.74647 c -0.652146,-0.11858 -1.211926,-0.46801 -1.478519,-0.92291 -0.346621,-0.59146 -0.360603,-0.6833 -0.397798,-2.61278 -0.03982,-2.06609 -0.02832,-2.02427 -0.578154,-2.0999 -0.305669,-0.0421 -0.312642,-0.0478 -0.293858,-0.24118 l 0.01924,-0.19812 1.227033,-0.0184 c 1.529123,-0.023 1.636045,-0.007 1.636045,0.24153 0,0.15076 -0.02678,0.18599 -0.141581,0.18628 -0.34423,7.4e-4 -0.622302,0.13198 -0.708924,0.3343 -0.101887,0.23797 -0.122647,2.77127 -0.0269,3.28352 0.156946,0.83976 0.638234,1.33171 1.367501,1.39784 0.961585,0.0872 1.567589,-0.34987 1.777984,-1.28232 0.08461,-0.37503 0.09068,-3.07886 0.0074,-3.29792 -0.08886,-0.23372 -0.233507,-0.32703 -0.629524,-0.4061 -0.335226,-0.0669 -0.355985,-0.0818 -0.355985,-0.25488 v -0.18381 l 1.158911,-0.0199 c 1.371371,-0.0236 1.467992,-0.009 1.440708,0.22286 -0.01674,0.142 -0.06536,0.17869 -0.323572,0.24426 -0.167122,0.0425 -0.35701,0.12525 -0.421975,0.18403 -0.154505,0.13983 -0.176887,0.35619 -0.211345,2.04306 -0.01981,0.96981 -0.05779,1.51789 -0.120564,1.73986 -0.224389,0.79348 -0.733488,1.36893 -1.384691,1.5652 -0.398497,0.12009 -1.167557,0.16716 -1.561422,0.0955 z m 40.972184,-0.007 c -0.15574,-0.0293 -0.45987,-0.10005 -0.67585,-0.15725 -0.44686,-0.11836 -0.41182,-0.0529 -0.61674,-1.15077 -0.11831,-0.63373 -0.10027,-0.69831 0.19557,-0.70051 0.0984,-7.5e-4 0.16447,0.0822 0.27186,0.34129 0.1751,0.42248 0.56692,0.87709 0.91149,1.05756 0.36465,0.19098 1.02701,0.19587 1.27745,0.009 0.38814,-0.28896 0.52545,-0.85462 0.30904,-1.27311 -0.13447,-0.26004 -0.38759,-0.43911 -1.16942,-0.82729 -0.78171,-0.38814 -1.08071,-0.59743 -1.31985,-0.92389 -0.46881,-0.63998 -0.39491,-1.45845 0.18395,-2.03732 0.39399,-0.39398 0.90845,-0.56456 1.69312,-0.56137 0.46241,0.002 1.28762,0.12039 1.35914,0.1952 0.0339,0.0356 0.23876,1.50687 0.21329,1.53232 -0.0124,0.0124 -0.10216,0.0318 -0.19938,0.0431 -0.16077,0.0187 -0.19002,-0.0108 -0.32294,-0.32558 -0.29235,-0.69227 -0.88202,-1.086 -1.46323,-0.97703 -0.54407,0.102 -0.81025,0.44492 -0.75904,0.97785 0.0474,0.49316 0.20364,0.63975 1.20117,1.12691 0.49088,0.23972 1.0167,0.54262 1.1685,0.67309 0.71481,0.61444 0.76563,1.69756 0.1112,2.37004 -0.5367,0.55152 -1.43773,0.78248 -2.36933,0.60733 z m 8.99826,-0.0277 c -1.4813,-0.33461 -2.45407,-1.57176 -2.45407,-3.121 0,-1.83809 1.48046,-3.17025 3.39794,-3.05755 0.91891,0.054 1.53466,0.31598 2.1259,0.9045 1.41403,1.40749 1.00801,4.05506 -0.76224,4.97049 -0.66395,0.34335 -1.59133,0.46535 -2.30753,0.30356 z m 1.45077,-0.50426 c 0.39042,-0.13775 0.66416,-0.36932 0.8769,-0.74182 0.61841,-1.08281 0.44859,-2.99462 -0.34394,-3.87186 -0.60097,-0.6652 -1.63708,-0.7951 -2.35784,-0.29561 -0.63906,0.44287 -0.96672,1.49815 -0.82153,2.64578 0.0822,0.64956 0.20372,1.00694 0.49603,1.45848 0.49012,0.75711 1.36155,1.08334 2.15038,0.80503 z m -24.90777,0.38069 c -0.14806,-0.0463 -0.36517,-0.15726 -0.48246,-0.24672 -0.18351,-0.13997 -0.71598,-0.88712 -1.3184,-1.84997 -0.19418,-0.31034 -0.35944,-0.39075 -0.80314,-0.39075 h -0.31657 l 0.0218,0.87445 c 0.0246,0.98798 0.0732,1.10544 0.48662,1.17487 0.4178,0.0702 0.44755,0.089 0.44755,0.28314 v 0.18453 h -1.45125 -1.45126 l 0.0197,-0.2045 c 0.0158,-0.16452 0.0505,-0.20827 0.17703,-0.22374 0.30323,-0.0371 0.56787,-0.14924 0.63115,-0.26748 0.086,-0.16063 0.0902,-4.31616 0.004,-4.54122 -0.0641,-0.16842 -0.36189,-0.29929 -0.683,-0.30009 -0.11412,0 -0.14158,-0.0356 -0.14158,-0.18239 0,-0.11239 0.0404,-0.19756 0.10563,-0.22258 0.0581,-0.0223 0.85803,-0.0295 1.77762,-0.0159 1.83605,0.0269 2.05579,0.0627 2.59895,0.42247 0.38832,0.25721 0.57876,0.64363 0.57369,1.16414 -0.002,0.22206 -0.0487,0.47589 -0.11136,0.60806 -0.13771,0.29019 -0.50356,0.65763 -0.81245,0.81595 -0.15447,0.0792 -0.22906,0.15523 -0.20746,0.21151 0.0756,0.19707 1.04918,1.59416 1.32122,1.89601 0.17384,0.19287 0.40677,0.37137 0.57483,0.44048 0.23799,0.0979 0.28259,0.14349 0.2828,0.28924 v 0.17305 l -0.48767,-0.004 c -0.26822,-0.002 -0.60881,-0.0421 -0.75687,-0.0883 z m -1.67089,-3.05725 c 0.32989,-0.10887 0.56795,-0.39128 0.65401,-0.77582 0.21548,-0.96287 -0.29634,-1.61183 -1.27121,-1.61183 -0.63098,0 -0.62041,-0.023 -0.62041,1.34586 v 1.14812 l 0.51392,-0.0185 c 0.28265,-0.0102 0.60831,-0.0497 0.72369,-0.0878 z m 37.46451,3.04085 c -0.39966,-0.1411 -0.77764,-0.55395 -1.37547,-1.50243 -0.32381,-0.51374 -0.5794,-0.85177 -0.67798,-0.89668 -0.087,-0.0396 -0.29845,-0.0721 -0.46987,-0.0721 h -0.31167 v 0.81506 c 0,1.11077 0.0152,1.13613 0.77084,1.29126 0.14242,0.0292 0.17304,0.069 0.17304,0.22425 v 0.18875 l -1.46128,-0.0168 -1.46129,-0.0168 3e-5,-0.15156 c 3e-5,-0.17275 0.0901,-0.23561 0.41035,-0.28634 0.49067,-0.0777 0.46496,0.0495 0.48525,-2.40124 0.0128,-1.55127 -0.003,-2.23986 -0.0546,-2.36439 -0.0715,-0.17239 -0.26395,-0.26036 -0.68712,-0.31394 -0.14769,-0.0186 -0.1812,-0.11309 -0.13333,-0.37558 0.013,-0.0713 2.9873,-0.0623 3.44213,0.0104 0.53446,0.0854 0.93588,0.25789 1.21356,0.52152 0.28317,0.26884 0.39622,0.55486 0.39411,0.99711 -0.003,0.6249 -0.30701,1.09921 -0.92983,1.45067 l -0.2608,0.14717 0.52339,0.79066 c 0.65227,0.98538 1.07479,1.45512 1.44622,1.60786 0.23738,0.0976 0.28198,0.1433 0.28217,0.28899 v 0.17304 l -0.51912,-0.005 c -0.29816,-0.003 -0.63822,-0.0471 -0.79892,-0.10376 z m -1.74735,-3.00985 c 0.50879,-0.0843 0.82305,-0.52713 0.82347,-1.16031 6.3e-4,-0.81848 -0.38257,-1.21088 -1.21939,-1.24895 -0.70862,-0.0323 -0.69172,-0.0651 -0.69172,1.3424 v 1.15417 l 0.42475,-0.0239 c 0.23361,-0.0131 0.53191,-0.0417 0.66289,-0.0634 z M 46.301527,137.436 c 0,-0.19149 0.0902,-0.25842 0.348269,-0.25842 0.272502,0 0.467569,-0.13518 0.53707,-0.37219 0.04227,-0.14413 0.05911,-0.98062 0.04661,-2.31618 -0.02251,-2.40827 0.0011,-2.31557 -0.608136,-2.38772 -0.324679,-0.0385 -0.330098,-0.0425 -0.31139,-0.23448 l 0.01903,-0.19536 2.372045,-0.0125 2.372045,-0.0125 0.03292,0.26416 c 0.01811,0.14529 0.04894,0.51193 0.06851,0.81476 l 0.0356,0.55059 h -0.207684 c -0.19265,0 -0.215857,-0.023 -0.320551,-0.31778 -0.06208,-0.17478 -0.19372,-0.40839 -0.292544,-0.51913 -0.17938,-0.20102 -0.180883,-0.20139 -0.932784,-0.23281 -0.414209,-0.0173 -0.834302,-0.017 -0.933534,6.3e-4 l -0.180418,0.032 -0.01721,1.08488 -0.01722,1.0849 0.552077,0.009 c 1.229822,0.021 1.272189,0.007 1.395974,-0.48525 0.06275,-0.2492 0.08978,-0.27929 0.250856,-0.27929 0.126215,0 0.190203,0.037 0.212692,0.123 0.04863,0.18598 0.05713,1.78692 0.01012,1.9094 -0.02525,0.0659 -0.10954,0.10704 -0.218879,0.10704 -0.18345,0 -0.200749,-0.0261 -0.280953,-0.42467 -0.06914,-0.34351 -0.210408,-0.39335 -1.114901,-0.39335 h -0.804022 l 6.3e-4,0.80229 c 6.29e-4,1.23078 0.05847,1.34117 0.749057,1.42745 0.335728,0.0419 0.345947,0.0507 0.295205,0.25285 l -0.04021,0.16026 h -1.509009 -1.508994 v -0.18205 z m 7.419954,0.16632 c -0.0028,-0.009 -0.01769,-0.0915 -0.03298,-0.18405 -0.02924,-0.17703 -0.01044,-0.19003 0.391135,-0.27052 0.214058,-0.0429 0.460653,-0.27327 0.607973,-0.56796 0.0519,-0.10383 0.540021,-1.25063 1.084717,-2.54846 0.54469,-1.29782 1.018614,-2.39507 1.053166,-2.43833 0.03454,-0.0433 0.140033,-0.0786 0.234408,-0.0786 0.194978,0 0.09222,-0.21877 1.548724,3.29737 0.443009,1.06947 0.872527,2.02418 0.954474,2.12157 0.127788,0.15187 0.396452,0.26029 0.676279,0.27291 0.03461,0.002 0.0718,0.0949 0.08264,0.20735 l 0.01972,0.2045 h -1.360856 -1.360856 l 0.01972,-0.2045 c 0.01592,-0.16507 0.05005,-0.20791 0.177033,-0.22213 0.388712,-0.0435 0.440474,-0.0742 0.440474,-0.26067 0,-0.0998 -0.09293,-0.39926 -0.2065,-0.66541 l -0.206507,-0.48391 -1.05949,7.3e-4 c -0.582722,6.4e-4 -1.080941,0.0244 -1.10715,0.0531 -0.100642,0.11041 -0.314894,0.79085 -0.314894,1.00007 0,0.23966 0.102592,0.3113 0.511843,0.35733 0.186011,0.0209 0.21419,0.0482 0.231513,0.22457 l 0.01972,0.20074 h -1.199555 c -0.659761,0 -1.201889,-0.007 -1.204733,-0.0158 z m 3.822833,-2.57992 c -0.04696,-0.11248 -0.236221,-0.59385 -0.420596,-1.06972 -0.18437,-0.47587 -0.35163,-0.86498 -0.371678,-0.86471 -0.02005,0 -0.190046,0.38963 -0.377757,0.86521 -0.187717,0.4756 -0.379228,0.95674 -0.425592,1.06922 l -0.08428,0.20451 h 0.882634 0.882634 z m 5.569876,2.39114 c 0.01085,-0.11248 0.04804,-0.20578 0.08265,-0.20734 0.444759,-0.02 0.745401,-0.22951 0.808823,-0.56348 0.09028,-0.47538 0.227869,-2.41492 0.246992,-3.48164 0.0132,-0.73638 0.0067,-0.78172 -0.127291,-0.89073 -0.07765,-0.0632 -0.282947,-0.13434 -0.456204,-0.15817 -0.173251,-0.0238 -0.318154,-0.0689 -0.321999,-0.10034 -0.0446,-0.36372 -0.114215,-0.33912 0.99564,-0.35171 0.718375,-0.008 1.034584,0.0103 1.078116,0.0629 0.03388,0.0409 0.174107,0.32929 0.31163,0.64077 0.137521,0.31147 0.375736,0.83532 0.529367,1.16411 0.153636,0.32878 0.431028,0.93757 0.616443,1.35288 0.185408,0.4153 0.373376,0.80945 0.417708,0.87588 0.07471,0.11196 0.08951,0.10045 0.202409,-0.15732 0.06699,-0.15295 0.283578,-0.61788 0.481299,-1.03319 0.408534,-0.8581 0.737095,-1.55426 1.09795,-2.32636 0.185024,-0.3959 0.28656,-0.54241 0.394683,-0.56955 0.08006,-0.02 0.541368,-0.028 1.025115,-0.0176 l 0.879543,0.019 0.01915,0.19683 c 0.01893,0.19464 0.01529,0.19731 -0.328726,0.24029 -0.191328,0.0239 -0.412314,0.0958 -0.491083,0.15971 l -0.143211,0.11624 0.01951,2.09753 c 0.01073,1.15365 0.04632,2.20037 0.07908,2.32604 0.06502,0.24948 0.211559,0.33765 0.656506,0.39501 0.138435,0.0178 0.256847,0.0335 0.263139,0.0348 0.0063,0.002 0.0031,0.0803 -0.007,0.17543 l -0.01842,0.17303 -1.487486,0.0168 -1.487486,0.0168 v -0.18491 c 0,-0.15541 0.03012,-0.19074 0.188774,-0.22138 0.806337,-0.15574 0.760863,-0.006 0.740266,-2.43755 l -0.01663,-1.96339 -0.682357,1.5058 c -0.375296,0.82818 -0.856406,1.9093 -1.069135,2.40247 -0.379337,0.87943 -0.390557,0.89668 -0.583137,0.89668 -0.181067,0 -0.207131,-0.0282 -0.334615,-0.36181 -0.262882,-0.68797 -1.848058,-4.42326 -1.868471,-4.40286 -0.03129,0.0313 -0.09241,1.70839 -0.106318,2.91677 -0.01402,1.21793 0.01511,1.30677 0.452442,1.38023 0.417814,0.0701 0.447565,0.089 0.447565,0.28314 v 0.18453 h -1.262485 -1.26248 z m 11.755197,0.0224 c 0,-0.19149 0.0902,-0.25842 0.348271,-0.25842 0.272282,0 0.467562,-0.13523 0.537472,-0.37219 0.04282,-0.14513 0.05944,-0.97116 0.04661,-2.31569 -0.02273,-2.38235 0.0051,-2.26625 -0.572075,-2.3787 -0.275409,-0.0536 -0.332261,-0.0883 -0.350051,-0.21312 -0.01167,-0.082 0.01664,-0.17307 0.06292,-0.20242 0.09512,-0.0603 2.524411,-0.0741 2.742735,-0.0156 0.103373,0.0277 0.141581,0.0847 0.141581,0.21128 0,0.16009 -0.02363,0.17645 -0.309489,0.21438 -0.170219,0.0226 -0.37551,0.0945 -0.456205,0.15979 l -0.146715,0.11873 -0.01891,2.07937 c -0.01204,1.32417 0.0052,2.16908 0.04762,2.32639 0.07104,0.26384 0.192216,0.34192 0.647735,0.41735 0.210616,0.0348 0.235968,0.0591 0.235968,0.22499 v 0.18592 h -1.478732 -1.478733 z m 6.481256,-0.004 c 0,-0.16614 0.0251,-0.18996 0.235968,-0.22386 0.420696,-0.0676 0.485754,-0.0867 0.613516,-0.1802 0.121823,-0.0891 0.12585,-0.16466 0.12585,-2.36016 0,-2.57968 0.03355,-2.42251 -0.544816,-2.55214 -0.293462,-0.0658 -0.33863,-0.0965 -0.355834,-0.24179 -0.01537,-0.12991 0.01227,-0.17447 0.12585,-0.20299 0.08005,-0.02 0.754349,-0.0282 1.498435,-0.0179 l 1.352883,0.0186 0.01972,0.20451 c 0.01801,0.18687 0.0044,0.20453 -0.157312,0.20485 -0.09737,0 -0.285477,0.0305 -0.418028,0.0673 -0.41577,0.11546 -0.430494,0.20696 -0.407885,2.53535 0.01443,1.48587 0.04076,2.05897 0.09936,2.16145 0.04683,0.0819 0.189604,0.16927 0.346085,0.21177 0.361717,0.0982 1.282729,0.042 1.546555,-0.0945 0.20587,-0.10645 0.666756,-0.74544 0.741165,-1.02758 0.03814,-0.1446 0.13323,-0.16951 0.387277,-0.10145 0.09409,0.0252 0.133294,0.0736 0.114095,0.14073 -0.01609,0.0563 -0.119626,0.44918 -0.230078,0.87313 l -0.200824,0.77084 H 83.79663 81.350643 Z m 17.870644,0.002 c 0,-0.19831 -0.0095,-0.19287 0.565712,-0.32328 0.284041,-0.0644 0.401531,-0.13593 0.660711,-0.40231 0.33666,-0.346 1.41642,-1.85785 1.41642,-1.98323 0,-0.0413 -0.35263,-0.59262 -0.78362,-1.22515 -0.83235,-1.22156 -0.92056,-1.305 -1.473274,-1.39338 -0.253197,-0.0405 -0.26582,-0.0526 -0.247717,-0.23859 l 0.01908,-0.19593 h 1.352891 1.35288 l 0.0188,0.19178 c 0.0175,0.17877 6.9e-4,0.19586 -0.24742,0.25171 -0.14641,0.0329 -0.27624,0.0913 -0.28851,0.12975 -0.0213,0.0667 0.95411,1.59767 1.01797,1.59767 0.041,0 0.74146,-1.04505 0.87798,-1.30995 0.14307,-0.27762 0.11223,-0.33634 -0.21845,-0.41606 -0.27702,-0.0668 -0.31033,-0.12195 -0.25541,-0.423 0.004,-0.0225 0.53841,-0.0367 1.18732,-0.0315 l 1.17984,0.01 0.0191,0.19566 c 0.0187,0.19219 0.0124,0.19698 -0.35486,0.26923 -0.6111,0.12022 -0.85565,0.34349 -1.72026,1.5705 l -0.42002,0.59606 0.60362,0.88665 c 1.22619,1.80112 1.29383,1.87075 1.92073,1.97694 0.24331,0.0412 0.26807,0.0628 0.28616,0.24939 l 0.0198,0.20426 -1.49854,-0.0168 -1.49854,-0.0168 -0.0194,-0.16765 c -0.0203,-0.1756 0.002,-0.19054 0.41194,-0.27298 0.3665,-0.0738 0.37321,-0.0523 -0.3789,-1.21115 l -0.50027,-0.77081 -0.2343,0.33034 c -0.47294,0.6668 -0.88909,1.40711 -0.84929,1.51082 0.0242,0.0629 0.17112,0.13016 0.37906,0.17333 0.2994,0.0621 0.33653,0.0868 0.31383,0.20783 -0.0142,0.0756 -0.0279,0.15857 -0.0304,0.18453 -0.003,0.026 -0.58516,0.0471 -1.29462,0.0471 h -1.289967 z m 23.596803,-0.004 c 0,-0.1078 0.0338,-0.18979 0.0787,-0.19115 0.21802,-0.007 0.60122,-0.0747 0.75413,-0.13407 0.12026,-0.0467 0.19122,-0.13568 0.23562,-0.29553 0.0848,-0.30544 0.0837,-3.99466 -0.002,-4.30085 -0.0765,-0.27523 -0.11324,-0.30277 -0.52994,-0.39662 -0.29204,-0.0658 -0.31687,-0.0858 -0.31687,-0.25538 v -0.18402 l 2.34396,-0.0131 2.34394,-0.0131 0.002,0.20184 c 0.002,0.20284 0.0462,0.78578 0.0863,1.15541 0.0192,0.17723 0.002,0.20137 -0.1607,0.22525 -0.21096,0.031 -0.24542,-0.004 -0.39378,-0.40622 -0.0604,-0.16341 -0.19483,-0.3687 -0.29882,-0.45621 -0.18243,-0.1535 -0.21985,-0.1591 -1.0652,-0.1591 h -0.87612 v 1.04368 1.04367 l 0.72932,-0.0211 c 0.67855,-0.0197 0.73773,-0.0315 0.84995,-0.17027 0.0664,-0.082 0.1382,-0.25899 0.15967,-0.39328 0.0364,-0.2276 0.0534,-0.24415 0.25123,-0.24415 h 0.2122 v 1.07371 1.07371 l -0.19831,-0.0197 c -0.1763,-0.0176 -0.20768,-0.052 -0.28271,-0.31053 -0.12461,-0.42936 -0.18976,-0.46071 -1.01163,-0.4868 l -0.71857,-0.0228 0.0201,1.01216 c 0.0264,1.32364 0.003,1.29416 1.0443,1.30799 0.40577,0.005 0.82634,-0.0157 0.93462,-0.0469 0.26044,-0.075 0.53438,-0.36371 0.77702,-0.81893 0.18207,-0.3416 0.21137,-0.36801 0.36708,-0.33069 0.0931,0.0223 0.17995,0.0496 0.19304,0.0607 0.025,0.0212 -0.0325,0.27814 -0.25513,1.14193 l -0.13383,0.51913 h -2.57038 -2.57039 v -0.18877 z m 37.12096,0.17305 c -0.0918,-0.30889 -0.0216,-0.42212 0.26271,-0.42378 0.27706,-0.002 0.53918,-0.12548 0.61424,-0.29022 0.0493,-0.10812 0.0716,-0.86147 0.0716,-2.4151 v -2.25795 l -0.14158,-0.0201 c -0.0779,-0.0111 -0.36415,-0.006 -0.63618,0.0113 -0.46545,0.0296 -0.50477,0.0436 -0.66715,0.23819 -0.0949,0.11371 -0.2237,0.37563 -0.2862,0.58205 -0.10934,0.36112 -0.12161,0.37533 -0.3243,0.37533 h -0.21067 l 0.0361,-0.58206 c 0.0199,-0.32013 0.0456,-0.70948 0.0571,-0.86522 0.0115,-0.15573 0.0238,-0.33271 0.0272,-0.39327 0.007,-0.1369 0.20962,-0.14469 0.40648,-0.0157 0.12065,0.079 0.49992,0.0954 2.32998,0.10053 1.96318,0.005 2.19778,-0.004 2.30256,-0.0995 0.0641,-0.0581 0.1824,-0.0962 0.26272,-0.0848 0.12311,0.0175 0.14747,0.0604 0.15507,0.27248 0.005,0.13844 0.0275,0.57026 0.05,0.95961 l 0.0409,0.7079 h -0.21236 c -0.19535,0 -0.21875,-0.0214 -0.29225,-0.26743 -0.12089,-0.40464 -0.30186,-0.72597 -0.45936,-0.81566 -0.0778,-0.0443 -0.41916,-0.0948 -0.75869,-0.11222 l -0.61732,-0.0317 0.0196,2.33743 c 0.0232,2.7746 -0.036,2.57733 0.80609,2.68772 0.12495,0.0163 0.16137,0.0615 0.17703,0.21923 l 0.0197,0.19861 h -1.51418 c -0.83281,0 -1.51629,-0.007 -1.51886,-0.0158 z M 38.188272,118.95419 c -3.032799,-0.51252 -4.906165,-2.91724 -4.970499,-6.38029 -0.06314,-3.39848 1.701619,-6.01667 4.566755,-6.77522 0.525441,-0.13912 0.754211,-0.16431 1.500883,-0.16527 1.030211,-0.001 1.573,0.11728 2.391696,0.52259 0.603449,0.29875 1.56667,1.03775 1.517986,1.16462 -0.03941,0.10271 -1.482761,1.85534 -1.527935,1.85534 -0.01702,0 -0.163453,-0.1096 -0.325403,-0.24354 -1.00769,-0.83349 -2.146019,-0.98762 -3.238777,-0.43853 -0.73174,0.36768 -1.397818,1.27049 -1.650178,2.23669 -0.353386,1.35298 -0.200459,3.13446 0.359244,4.185 0.925435,1.73701 3.082195,2.0597 4.684041,0.7008 l 0.40387,-0.34261 0.147081,0.17599 c 0.08089,0.0968 0.419972,0.5009 0.753511,0.89799 0.333539,0.3971 0.606438,0.75223 0.606438,0.78918 0,0.20145 -1.054305,1.02824 -1.725367,1.35304 -1.0046,0.48626 -2.324819,0.6617 -3.493346,0.46422 z m 31.647131,0.0402 c -1.313681,-0.14123 -2.850261,-0.79077 -3.723425,-1.57396 l -0.317059,-0.28438 0.736328,-0.88095 c 0.404977,-0.48451 0.785427,-0.93198 0.845432,-0.99435 0.104664,-0.10877 0.134005,-0.0968 0.720735,0.29554 1.284962,0.85911 2.669276,1.13573 3.625349,0.72444 0.376712,-0.16206 0.600391,-0.40698 0.696024,-0.76214 0.130349,-0.48408 -0.06102,-0.89298 -0.567588,-1.21276 -0.125661,-0.0794 -0.940605,-0.44668 -1.811001,-0.81634 -0.870388,-0.36967 -1.757389,-0.78514 -1.971107,-0.92327 -1.182804,-0.76449 -1.819131,-1.95654 -1.741419,-3.26229 0.102108,-1.71566 1.279331,-3.01794 3.194221,-3.53353 0.706161,-0.19013 1.993615,-0.20422 2.704653,-0.0296 0.959106,0.23555 1.985723,0.74946 2.588619,1.29582 l 0.31246,0.28316 -0.736094,0.91242 c -0.404853,0.50182 -0.753198,0.91202 -0.774102,0.91156 -0.0209,-6.3e-4 -0.20465,-0.10996 -0.408325,-0.24334 -0.821999,-0.53828 -1.607861,-0.76594 -2.454615,-0.71107 -0.91633,0.0594 -1.422484,0.45718 -1.422484,1.11801 0,0.36725 0.180701,0.64571 0.576391,0.88824 0.161282,0.0988 0.996609,0.46442 1.856281,0.81238 1.827223,0.73959 2.099097,0.88432 2.666169,1.41926 0.74798,0.70562 1.082709,1.58085 1.042795,2.72668 -0.03429,0.98453 -0.395117,1.80446 -1.107652,2.517 -1.016116,1.0161 -2.730697,1.51698 -4.530586,1.32348 z m 88.239567,-0.006 c -1.30956,-0.17141 -2.4313,-0.74939 -3.32854,-1.71502 -1.17208,-1.26142 -1.71005,-2.93873 -1.68441,-5.25179 0.0231,-2.0793 0.68473,-3.79301 1.9055,-4.93505 1.04594,-0.9785 2.18421,-1.42337 3.74917,-1.46531 2.62869,-0.0705 4.55727,1.12719 5.52115,3.42859 0.80046,1.91117 0.78416,4.64849 -0.039,6.55246 -0.32161,0.74389 -0.58295,1.14716 -1.10513,1.70526 -0.75627,0.80832 -1.6168,1.31004 -2.68004,1.56256 -0.6036,0.14336 -1.71702,0.19967 -2.33869,0.1183 z m 1.88832,-2.75036 c 0.77165,-0.36109 1.31903,-1.11702 1.6283,-2.24863 0.1892,-0.69227 0.20649,-2.57155 0.0306,-3.3216 -0.1645,-0.70132 -0.53431,-1.40352 -0.94243,-1.7895 -0.41056,-0.38831 -0.71224,-0.54783 -1.2278,-0.64926 -1.19953,-0.23599 -2.29573,0.33336 -2.83993,1.47501 -0.40939,0.85884 -0.47476,1.21926 -0.4691,2.58638 0.004,1.01604 0.0253,1.27116 0.14055,1.69897 0.3511,1.30358 1.09648,2.17495 2.07117,2.42122 0.44014,0.11122 1.16938,0.033 1.60867,-0.17259 z m 43.06094,2.74968 c -1.05392,-0.14573 -2.06755,-0.51951 -2.85034,-1.05109 -0.52942,-0.35953 -1.32494,-1.22765 -1.65194,-1.80269 -0.58329,-1.02572 -0.88649,-2.31398 -0.88602,-3.76443 7.5e-4,-2.38538 0.90452,-4.37072 2.53931,-5.57841 1.33739,-0.98799 3.22858,-1.40348 4.89546,-1.07554 0.68183,0.13414 0.94544,0.22255 1.50362,0.50429 0.63628,0.32117 1.47061,0.97079 1.41911,1.10498 -0.0805,0.20977 -1.50212,1.84808 -1.56932,1.80853 -0.0403,-0.0237 -0.18661,-0.13186 -0.32505,-0.24023 -0.55118,-0.43152 -1.08719,-0.6458 -1.75699,-0.70242 -1.69858,-0.14358 -3.03161,0.8737 -3.50724,2.67651 -0.16908,0.64086 -0.20633,1.86494 -0.0785,2.57782 0.22181,1.23651 0.7308,2.07415 1.54898,2.54912 0.5556,0.32254 1.0286,0.43621 1.84305,0.44297 0.69551,0.006 0.78364,-0.007 1.11692,-0.16325 l 0.36181,-0.16953 v -1.10466 -1.10466 h -1.07108 -1.07108 l 0.0171,-1.2113 0.0171,-1.2113 2.23382,-0.0147 c 1.22861,-0.008 2.29755,0.002 2.37542,0.023 l 0.14158,0.0379 v 2.98067 2.98067 l -0.36181,0.28469 c -0.64524,0.50769 -1.505,0.8915 -2.53273,1.13062 -0.51817,0.12056 -1.78722,0.1705 -2.3512,0.0925 z M 2.3800129,112.32359 v -6.48271 h 2.156825 c 2.2470032,0 2.8719291,0.0431 3.745487,0.25849 1.8022001,0.44432 3.1006341,1.53693 3.7472711,3.15327 0.766577,1.91614 0.672318,4.75072 -0.217064,6.52766 -0.816403,1.63112 -2.3089849,2.63893 -4.33561,2.92748 -0.4038445,0.0575 -1.3276148,0.0873 -2.8473478,0.0918 l -2.2495613,0.007 z m 4.4626997,3.98221 c 1.293299,-0.23662 2.1318717,-1.0559 2.4995136,-2.44201 0.093985,-0.35435 0.1166224,-0.66809 0.115778,-1.60458 -9.037e-4,-1.01693 -0.018919,-1.22625 -0.1424138,-1.65552 -0.1974653,-0.68642 -0.412475,-1.07954 -0.8052747,-1.47234 -0.5908804,-0.59088 -1.482133,-0.89218 -2.6537073,-0.89714 l -0.5191297,-0.002 v 4.09411 4.09411 l 0.5141687,-0.0136 c 0.2827927,-0.007 0.7287727,-0.0528 0.9910652,-0.10085 z m 10.2012114,2.48297 c 0.0013,-0.009 0.915446,-2.91925 2.031351,-6.46665 l 2.028921,-6.44978 1.770219,-0.0167 1.770218,-0.0167 0.0972,0.29986 c 0.390712,1.20533 3.940747,12.56507 3.940747,12.60997 0,0.0327 -0.660301,0.0496 -1.557389,0.04 l -1.557389,-0.0168 -0.351548,-1.35288 c -0.193349,-0.74409 -0.370866,-1.43076 -0.394476,-1.52593 l -0.04294,-0.17304 h -1.945229 c -1.797975,0 -1.947748,0.008 -1.978502,0.11012 -0.01829,0.0605 -0.165667,0.61981 -0.327482,1.24277 -0.161816,0.62295 -0.327563,1.26006 -0.368327,1.4158 l -0.07412,0.28316 -1.521846,0.0168 c -0.837017,0.009 -1.520753,0.009 -1.519416,0 z m 7.090609,-5.5385 c -0.115316,-0.50804 -1.253413,-4.94651 -1.293092,-5.04292 -0.0349,-0.0848 -0.09033,0.0691 -0.192699,0.53486 -0.07903,0.35966 -0.356787,1.48924 -0.617228,2.5102 -0.260441,1.02096 -0.487817,1.91999 -0.50528,1.99786 l -0.03175,0.14159 h 1.336092 1.336095 z m 25.187384,-0.92815 v -6.48124 h 1.478732 1.478734 v 2.48552 2.48553 h 2.202368 2.202369 v -2.48553 -2.48552 h 1.478732 1.478733 v 6.48124 6.48126 H 58.162852 56.68412 v -2.70577 -2.70575 h -2.202369 -2.202368 v 2.70575 2.70577 h -1.478734 -1.478732 z m 34.419868,1.24277 6e-6,-5.23849 -1.729262,0.0137 c -1.607917,0.0129 -1.733509,0.006 -1.789782,-0.0993 -0.03369,-0.0629 -0.05513,-0.6131 -0.04837,-1.24082 l 0.01216,-1.12773 h 5.033985 5.033984 l 0.02119,1.03074 c 0.01166,0.5669 0.003,1.12754 -0.01916,1.24585 l -0.04036,0.2151 -1.758514,-0.0188 -1.758516,-0.0188 5e-5,5.23849 5e-5,5.23849 H 85.22052 83.741786 Z m 12.459111,-1.24277 v -6.48124 h 4.059974 4.05999 l -0.0171,1.24275 -0.0171,1.24277 -2.56418,0.0164 -2.564189,0.0164 v 1.25779 1.25779 h 2.202369 2.20237 v 1.2585 1.2585 h -2.20237 -2.202369 v 1.44727 1.44726 h 2.674299 2.67431 v 1.2585 1.2585 h -4.15304 -4.153035 z m 14.787324,0 v -6.48353 l 1.49447,0.0169 1.49446,0.0169 v 6.44979 6.4498 l -1.49446,0.0168 -1.49447,0.0168 z m 9.94213,0 v -6.48124 h 1.50506 1.50506 l 0.12228,0.2045 c 0.0673,0.11247 0.31395,0.57262 0.54821,1.02253 0.23425,0.44991 0.55996,1.07286 0.7238,1.38434 0.16384,0.31148 0.4759,0.90611 0.69347,1.32142 0.21759,0.4153 0.50075,0.95332 0.62926,1.19558 0.47858,0.9022 0.75793,1.47439 1.21349,2.48552 0.25727,0.57105 0.52809,1.16569 0.6018,1.32142 l 0.13404,0.28317 -0.0362,-0.53486 c -0.02,-0.29417 -0.0495,-0.63397 -0.0657,-0.7551 -0.14863,-1.10901 -0.19987,-2.34406 -0.20688,-4.9868 l -0.008,-2.94172 h 1.41694 1.41695 v 6.48124 6.48126 h -1.52786 -1.52786 l -0.23149,-0.4562 c -0.12732,-0.25091 -0.43244,-0.83848 -0.67804,-1.30569 -0.50139,-0.95382 -1.15279,-2.19478 -1.92392,-3.66523 -0.28581,-0.54499 -0.80917,-1.6286 -1.16302,-2.408 -0.35384,-0.77939 -0.65017,-1.4095 -0.65849,-1.40023 -0.008,0.009 0.0261,0.39913 0.0764,0.86635 0.22665,2.10245 0.25502,2.69126 0.26454,5.4902 l 0.01,2.8788 h -1.41696 -1.41697 z m 17.11554,-0.002 v -6.48239 l 1.49446,0.0169 1.49448,0.0169 v 2.63062 2.63063 l 0.14121,-0.17656 c 0.0777,-0.0971 0.95084,-1.28797 1.94036,-2.64636 l 1.79915,-2.4698 h 1.63123 1.63123 l -0.20512,0.27835 c -0.22884,0.31054 -1.21309,1.61099 -2.70807,3.57804 -0.54671,0.71936 -0.98301,1.32816 -0.96953,1.35288 0.0738,0.13549 1.95241,3.3054 2.33871,3.94629 1.0385,1.72298 2.23496,3.74335 2.23496,3.77405 0,0.0181 -0.72915,0.032 -1.62032,0.0309 l -1.62031,-0.002 -0.63465,-1.11488 c -1.82529,-3.20649 -2.45162,-4.28949 -2.48013,-4.28842 -0.0173,6.3e-4 -0.34921,0.42224 -0.73758,0.93686 l -0.70609,0.93565 -0.006,1.67794 c -0.003,0.92287 -0.0211,1.71821 -0.04,1.76744 -0.0283,0.0738 -0.29172,0.0895 -1.50634,0.0895 h -1.47201 v -6.4824 z m 33.13673,6.38309 c -0.049,-0.12791 -0.0469,-12.53385 0.002,-12.72163 l 0.037,-0.14158 h 1.48961 1.48961 l 0.22715,0.42475 c 0.32721,0.61184 2.07961,3.95649 2.7117,5.17556 0.29609,0.57105 0.79832,1.61875 1.11608,2.32822 0.31775,0.70947 0.59201,1.30412 0.60946,1.32142 0.0175,0.0173 0.0161,-0.096 -0.003,-0.25169 -0.0191,-0.15575 -0.0523,-0.45307 -0.0738,-0.66071 -0.0215,-0.20766 -0.0523,-0.48066 -0.0684,-0.60667 -0.13834,-1.08532 -0.20445,-2.67221 -0.21003,-5.04084 L 178.503,105.84 h 1.41703 1.41703 v 6.48238 6.48238 l -1.52019,-0.0168 -1.52018,-0.0168 -0.87295,-1.6675 c -0.48014,-0.91713 -1.1378,-2.1772 -1.46148,-2.80016 -0.32367,-0.62295 -0.70117,-1.34502 -0.83888,-1.60458 -0.13771,-0.25956 -0.51327,-1.06004 -0.83458,-1.77885 -0.3213,-0.71878 -0.5967,-1.29438 -0.612,-1.27908 -0.0239,0.0239 0.065,1.07197 0.13936,1.64212 0.0135,0.10383 0.0426,0.40115 0.0645,0.66071 0.0219,0.25957 0.054,0.5852 0.0711,0.72364 0.0513,0.41311 0.0992,5.90565 0.0526,6.02505 -0.0391,0.10019 -0.16661,0.11012 -1.41388,0.11012 -1.19069,0 -1.37589,-0.0131 -1.40899,-0.0993 z m 17.1402,-6.38196 V 105.84 h 1.47872 1.47873 v 6.48125 6.48126 h -1.47873 -1.47872 z m -31.86419,-7.42794 c -0.68286,-0.11575 -1.11026,-0.65883 -1.10703,-1.40665 0.004,-1.04984 1.08782,-1.68213 2.05566,-1.19983 0.752,0.37474 0.97602,1.3835 0.46415,2.09012 -0.29954,0.41349 -0.84455,0.61269 -1.41278,0.51636 z m 4.25415,-0.0295 c -0.60824,-0.18369 -0.97767,-0.69342 -0.97349,-1.34323 0.005,-0.82109 0.57031,-1.38836 1.38629,-1.39176 0.82013,-0.004 1.3935,0.56957 1.39668,1.39574 0.002,0.38721 -0.0676,0.59716 -0.30043,0.9122 -0.28599,0.38706 -0.98575,0.58508 -1.50905,0.42705 z M 84.831195,92.936335 c -0.178083,-0.06588 -0.334312,-0.30097 -0.334312,-0.503065 0,-0.519458 0.82052,-1.109843 2.692609,-1.937412 0.373679,-0.165183 1.03581,-0.531179 1.471408,-0.813322 0.435604,-0.282142 1.100611,-0.679342 1.477808,-0.88267 0.37719,-0.20333 0.919464,-0.504462 1.205048,-0.669187 0.444683,-0.256494 0.551013,-0.293538 0.740524,-0.257986 0.227989,0.04278 0.466241,0.323963 0.466744,0.55085 7.44e-4,0.340348 -0.414259,0.672749 -1.667274,1.335416 -0.311477,0.164731 -0.929261,0.539668 -1.372856,0.8332 -0.443594,0.293525 -1.264763,0.756237 -1.824819,1.028236 -0.560056,0.271998 -1.244816,0.640208 -1.521685,0.818248 -0.703946,0.452663 -1.07772,0.592192 -1.333195,0.497692 z m 5.474169,0 c -0.277398,-0.103204 -0.430285,-0.507011 -0.316393,-0.835654 0.106438,-0.307137 1.608498,-1.23602 1.998713,-1.23602 0.305198,0 0.564108,0.295136 0.561572,0.640141 -0.0011,0.149748 -0.0365,0.316977 -0.07866,0.371621 -0.08781,0.113805 -1.323831,0.925756 -1.526676,1.002876 -0.228782,0.08698 -0.494312,0.110698 -0.63856,0.05704 z m 4.15782,-0.02004 c -0.226391,-0.101373 -0.325605,-0.330336 -0.302776,-0.698755 0.04292,-0.692638 0.02743,-1.307061 -0.04291,-1.701852 -0.04288,-0.240675 -0.07521,-0.706596 -0.07183,-1.035377 0.0215,-2.093094 0.07336,-4.885274 0.0982,-5.285683 0.0161,-0.259566 -0.009,-0.769257 -0.05567,-1.132648 -0.101402,-0.788831 -0.110439,-1.547094 -0.02961,-2.485529 0.03279,-0.380696 0.07488,-0.969572 0.09352,-1.30861 0.01866,-0.339039 0.06274,-0.6703 0.09797,-0.736138 0.147911,-0.276379 0.54379,-0.398862 0.816845,-0.252726 0.310919,0.1664 0.417708,1.146843 0.284503,2.612097 -0.0626,0.68848 -0.06742,1.613085 -0.02317,4.4362 0.01274,0.813303 -9.03e-4,2.045055 -0.03035,2.737229 -0.03624,0.852026 -0.03132,1.416235 0.0152,1.746874 0.174403,1.23943 0.202241,2.256534 0.0725,2.649619 -0.140442,0.425548 -0.543991,0.624736 -0.922409,0.455299 z m 3.374462,0.03167 c -0.243387,-0.06775 -0.425807,-0.39725 -0.475183,-0.858326 -0.04295,-0.401064 -0.02602,-0.722641 0.102026,-1.937454 0.03584,-0.339946 0.05042,-0.75053 0.03242,-0.91241 -0.01799,-0.161874 -0.04966,-0.492538 -0.07037,-0.734798 -0.0207,-0.24226 -0.06241,-0.667003 -0.09267,-0.943872 -0.05963,-0.545584 -0.03506,-2.599519 0.0444,-3.712564 0.06422,-0.899378 0.06348,-2.627073 -0.0014,-3.291508 -0.159277,-1.631244 0.04327,-2.377476 0.631959,-2.328275 0.181872,0.0152 0.263391,0.06463 0.37115,0.225107 0.268889,0.400403 0.295111,0.840034 0.247042,4.142674 -0.0541,3.717528 -0.05177,4.573797 0.01713,6.285986 0.07449,1.851028 0.04692,3.068926 -0.07861,3.471877 -0.09067,0.291058 -0.396464,0.663039 -0.528939,0.643425 -0.0233,-0.0035 -0.112837,-0.02589 -0.198975,-0.04986 z m 3.130614,-0.04557 c -0.0865,-0.04534 -0.21058,-0.189654 -0.2757,-0.320721 -0.12569,-0.252984 -0.11545,-7.44e-4 -0.16677,-4.108166 -0.0129,-1.034748 0.0606,-4.075425 0.11264,-4.656435 0.0781,-0.872333 0.0953,-2.446693 0.033,-3.020391 -0.18506,-1.704715 -0.15592,-2.062423 0.19189,-2.355087 0.23691,-0.19934 0.43982,-0.205644 0.65397,-0.02032 0.23837,0.206273 0.35421,0.935975 0.37211,2.343949 0.0184,1.444432 -0.0609,5.914075 -0.12379,6.984653 -0.0684,1.164097 -0.0679,2.026079 0.002,2.894541 0.0333,0.415304 0.055,0.965764 0.0481,1.22324 -0.0223,0.837145 -0.38315,1.277901 -0.84724,1.034742 z m 3.16683,0.04797 c -0.28441,-0.08188 -0.38764,-0.313851 -0.44032,-0.989442 -0.0539,-0.691966 -0.039,-5.099201 0.0189,-5.595394 0.0865,-0.740801 0.0689,-6.327763 -0.0224,-7.095723 -0.0536,-0.450812 -6.3e-4,-0.696873 0.1959,-0.905802 0.28292,-0.301152 0.90922,-0.133854 1.06978,0.285767 0.0347,0.09063 0.0773,0.957633 0.0947,1.926676 0.0174,0.969042 0.0365,1.960107 0.0424,2.202367 0.0128,0.529218 -0.0869,4.941354 -0.11879,5.254222 -0.0561,0.550567 -0.0364,2.414526 0.0309,2.926003 0.17744,1.34824 -0.18971,2.187494 -0.87113,1.991326 z m 3.14057,-0.02617 c -0.32925,-0.163719 -0.38113,-0.410555 -0.42226,-2.008619 -0.0448,-1.742148 -0.0494,-3.620731 -0.0131,-5.420285 l 0.0264,-1.3109 0.2055,-0.183565 c 0.36297,-0.324233 0.77217,-0.201813 0.89892,0.268922 0.0466,0.172968 0.0642,1.014247 0.0532,2.530421 -0.009,1.24922 0.004,2.851789 0.0303,3.561267 0.0672,1.847409 0.0612,2.103098 -0.0548,2.327318 -0.1484,0.286974 -0.43383,0.379782 -0.7241,0.235445 z m 2.86156,-0.0088 c -0.38227,-0.16446 -0.3721,-0.03888 -0.38006,-4.693404 -0.004,-2.336083 -0.0252,-4.332373 -0.0471,-4.436198 -0.16674,-0.789531 -0.0869,-1.301846 0.23589,-1.513336 0.18994,-0.124453 0.55272,-0.09227 0.72583,0.06439 0.26392,0.238851 0.27298,0.411365 0.28262,5.381746 0.009,4.746807 -0.003,5.058455 -0.20099,5.180876 -0.13643,0.08432 -0.43903,0.09214 -0.61616,0.01593 z m 3.01093,-0.0015 c -0.41103,-0.181728 -0.41328,-0.195206 -0.40212,-2.405742 0.005,-1.09627 0.0233,-2.014594 0.0394,-2.040727 0.0253,-0.04084 0.0285,-5.264856 0.004,-7.055721 -0.008,-0.579034 6.3e-4,-0.620954 0.1536,-0.773925 0.27958,-0.279391 0.76704,-0.221627 0.94972,0.112547 0.0467,0.08532 0.10062,0.637492 0.13679,1.399423 0.0729,1.53536 0.0797,7.406181 0.01,8.620698 -0.0278,0.484522 -0.0554,0.994212 -0.0614,1.132648 -0.006,0.138433 -0.0158,0.356304 -0.0219,0.484156 -0.021,0.442436 -0.41638,0.700019 -0.80853,0.526643 z m 6.36639,0.04534 c -0.19209,-0.04647 -0.3965,-0.263107 -0.48575,-0.514807 -0.0778,-0.219356 -0.10312,-1.806369 -0.0649,-4.065124 0.008,-0.449913 -0.002,-1.68176 -0.0221,-2.737436 -0.0386,-2.060556 0.01,-2.74205 0.21379,-3.016176 0.24915,-0.334728 0.66288,-0.327378 0.91881,0.01632 0.12478,0.16757 0.13297,0.262032 0.14447,1.667508 0.007,0.819426 0.0412,1.843823 0.0766,2.276431 0.0615,0.752146 0.0456,2.437549 -0.0263,2.768691 -0.0854,0.393727 -0.10788,1.58517 -0.0367,1.946888 0.17648,0.897049 0.0601,1.445093 -0.34248,1.613322 -0.11772,0.04918 -0.22203,0.08614 -0.23179,0.08213 -0.01,-0.004 -0.0744,-0.021 -0.14361,-0.03774 z m 2.82389,-0.0483 c -0.37743,-0.158697 -0.38706,-0.243588 -0.35008,-3.084361 0.007,-0.553738 0.003,-1.431538 -0.009,-1.950668 -0.0251,-1.055538 0.0149,-1.289411 0.25191,-1.47587 0.24329,-0.191386 0.48692,-0.164573 0.75747,0.08337 l 0.23142,0.212082 -0.002,2.100405 c -0.002,3.435222 -0.0278,3.827754 -0.26326,4.040842 -0.15249,0.138007 -0.39552,0.167241 -0.61681,0.07421 z m 2.88686,0.01837 c -0.3738,-0.09943 -0.41374,-0.242449 -0.37905,-1.357898 0.0338,-1.086964 0.0845,-1.276663 0.37969,-1.419622 0.32676,-0.158249 0.68641,0.0072 0.84608,0.389158 0.11228,0.268621 0.0499,1.836152 -0.0834,2.097523 -0.13717,0.268815 -0.4286,0.379865 -0.76327,0.290839 z m -9.069,-0.149097 c -0.11825,-0.150327 -0.20295,-0.460118 -0.29145,-1.065895 -0.0202,-0.138435 -0.0318,-1.271081 -0.0258,-2.516993 0.006,-1.245911 0.003,-2.930722 -0.007,-3.744025 -0.0451,-3.753101 0.01,-6.194319 0.14567,-6.456627 0.21113,-0.408281 0.5511,-0.526473 0.88501,-0.307683 0.33259,0.217915 0.4822,0.801907 0.3429,1.33841 -0.0358,0.137943 -0.0677,2.140143 -0.0773,4.859576 -0.0129,3.628874 0.002,4.787602 0.071,5.380071 0.19568,1.690148 -0.0547,2.674305 -0.68036,2.674305 -0.17846,0 -0.26714,-0.03937 -0.36292,-0.161139 z M 84.651193,89.628616 c -0.280475,-0.302631 -0.155764,-0.688409 0.357865,-1.107036 0.357564,-0.291417 0.893294,-0.581727 2.043408,-1.107288 0.51521,-0.235432 1.276537,-0.647187 1.69184,-0.915015 1.317967,-0.849949 3.054622,-1.80107 3.288583,-1.80107 0.403575,0 0.661409,0.496098 0.456658,0.878675 -0.0747,0.139579 -0.647138,0.506312 -1.593678,1.02098 -0.387358,0.210622 -1.003342,0.589461 -1.368847,0.841865 -0.60511,0.417858 -1.264814,0.779336 -2.29291,1.256363 -0.207652,0.09635 -0.664078,0.354021 -1.014272,0.572597 -0.72942,0.455274 -0.890972,0.526429 -1.195195,0.526429 -0.156154,0 -0.263503,-0.04786 -0.373452,-0.1665 z m 0.01149,-3.173083 c -0.12702,-0.09991 -0.165801,-0.186208 -0.165801,-0.368934 0,-0.20338 0.04404,-0.279702 0.298893,-0.517998 0.242751,-0.226982 1.485195,-0.996244 1.609037,-0.996244 0.05932,0 1.076977,-0.602172 1.746051,-1.033187 0.361005,-0.232559 1.059011,-0.619647 1.551134,-0.86019 0.492122,-0.240548 1.1517,-0.610962 1.465732,-0.82315 0.610767,-0.41268 0.817368,-0.463618 1.108005,-0.273182 0.220728,0.144626 0.300724,0.389165 0.218085,0.666644 -0.08787,0.295042 -0.74513,0.770773 -1.861769,1.34756 -0.449912,0.2324 -1.20029,0.655614 -1.667507,0.940487 -2.001928,1.220609 -3.045761,1.787983 -3.582403,1.947208 -0.441947,0.131123 -0.519873,0.127982 -0.719457,-0.02901 z m 0.133092,-3.209637 c -0.159697,-0.09302 -0.298893,-0.395502 -0.298893,-0.649516 0,-0.359546 0.308156,-0.590072 1.782798,-1.333679 0.728059,-0.367135 1.523806,-0.802594 1.768332,-0.967696 0.244526,-0.165096 0.982602,-0.597528 1.640167,-0.960956 0.657564,-0.363429 1.370231,-0.763454 1.58371,-0.888939 0.490605,-0.288397 0.7564,-0.300094 1.040976,-0.04582 0.164612,0.147074 0.204066,0.23016 0.204066,0.429688 0,0.43763 -0.105179,0.519249 -1.720458,1.33505 -0.828424,0.418401 -1.685693,0.893326 -1.905042,1.055388 -0.60876,0.449768 -1.092287,0.724459 -1.78726,1.015342 -0.348339,0.145797 -0.829714,0.409332 -1.069722,0.585635 -0.642286,0.471811 -0.967418,0.583496 -1.238674,0.425505 z m 22.051115,-1.473511 c -0.22919,-0.192846 -0.29168,-0.416008 -0.1969,-0.703178 0.0833,-0.252442 0.46181,-0.515178 1.63247,-1.133175 0.398,-0.210106 0.85106,-0.452241 1.00679,-0.53807 0.15574,-0.08583 0.58049,-0.320338 0.94388,-0.521124 0.36339,-0.200788 1.2186,-0.656464 1.90046,-1.012618 0.68187,-0.356148 1.57383,-0.870332 1.98214,-1.142627 1.06187,-0.708149 1.74103,-1.106381 2.51715,-1.475958 0.37361,-0.177907 1.07571,-0.58352 1.56024,-0.90136 1.83074,-1.200951 2.58925,-1.522264 2.96773,-1.257161 0.29523,0.206782 0.21745,0.636527 -0.18574,1.026341 -0.3774,0.364869 -1.26783,0.893853 -2.84492,1.690116 -1.90381,0.961227 -2.72593,1.422654 -3.96426,2.225027 -0.51913,0.336371 -1.45356,0.895137 -2.07652,1.241701 -0.62295,0.346565 -1.51491,0.850448 -1.98213,1.119742 -3.03705,1.750473 -2.89465,1.690097 -3.26039,1.382344 z M 84.827791,80.118041 c -0.17062,-0.02656 -0.330908,-0.239441 -0.330908,-0.439486 0,-0.391511 0.3879,-0.756355 1.307873,-1.230154 0.741858,-0.382067 0.925617,-0.398786 1.213957,-0.110439 0.267034,0.267033 0.244565,0.4722 -0.08616,0.786453 -0.321074,0.305091 -1.358629,0.888284 -1.712964,0.962825 -0.137925,0.02902 -0.314234,0.04287 -0.391802,0.0308 z M 107.02526,78.58661 c -0.36416,-0.143922 -0.51693,-0.476769 -0.37552,-0.818149 0.0579,-0.139807 0.19282,-0.246263 0.52247,-0.412277 0.61763,-0.311031 1.5792,-0.859113 3.34408,-1.906074 0.8306,-0.492734 1.89246,-1.094603 2.35968,-1.337499 1.20025,-0.623969 1.47897,-0.783779 2.01359,-1.154544 0.70248,-0.487179 1.78244,-1.158766 2.4226,-1.50654 0.31148,-0.16921 1.06186,-0.607131 1.66751,-0.973157 0.60566,-0.366027 1.46918,-0.831109 1.91894,-1.033516 0.44976,-0.202408 1.05569,-0.524711 1.34651,-0.716229 0.40069,-0.263872 0.59994,-0.355055 0.82262,-0.376452 0.26893,-0.02584 0.30817,-0.01122 0.46257,0.172276 0.20055,0.238331 0.21144,0.403187 0.0448,0.676621 -0.23537,0.386036 -0.82687,0.735169 -2.227,1.314482 -0.56713,0.234657 -1.03031,0.484743 -1.5477,0.835659 -0.4061,0.275432 -1.16819,0.730593 -1.69352,1.011468 -0.52535,0.280877 -1.526,0.894702 -2.22368,1.364053 -0.86335,0.580796 -1.56127,0.99401 -2.18504,1.293683 -0.50409,0.242179 -1.34126,0.702669 -1.86039,1.023321 -1.93723,1.19656 -4.21596,2.490116 -4.53058,2.571843 -0.0692,0.01798 -0.19605,0.005 -0.28186,-0.02897 z M 87.937077,76.602181 c -0.02538,-0.02538 -0.736901,-0.04778 -1.581163,-0.0498 l -1.535032,-0.0036 -0.164975,-0.15499 c -0.127971,-0.120218 -0.16078,-0.20438 -0.146269,-0.375165 0.04969,-0.584778 1.149245,-0.771741 3.542496,-0.602346 1.369823,0.09696 4.759884,0.0603 6.072244,-0.06568 1.19708,-0.1149 6.160422,-0.1519 8.966782,-0.06684 1.87883,0.05695 1.93743,0.06763 2.1501,0.392217 0.096,0.146533 0.0977,0.189183 0.0166,0.422333 -0.14157,0.407066 -0.23067,0.429272 -1.56892,0.390983 -3.6134,-0.103379 -6.663067,-0.129915 -7.000489,-0.06092 -0.175686,0.03592 -1.521912,0.07797 -3.979893,0.124283 -1.038259,0.01956 -2.52621,0.04909 -3.306554,0.06564 -0.780343,0.01654 -1.439568,0.0093 -1.464939,-0.01607 z M 106.9925,75.017754 c -0.2771,-0.16942 -0.35867,-0.294244 -0.35867,-0.548844 0,-0.409866 0.49436,-0.779229 2.37226,-1.772434 0.58835,-0.311168 1.64285,-0.90981 2.34335,-1.330312 0.70048,-0.420503 1.59244,-0.924142 1.98213,-1.119199 0.82277,-0.411845 1.49709,-0.811376 2.02993,-1.202739 0.20765,-0.152517 0.78813,-0.474452 1.28995,-0.715413 1.29567,-0.622136 1.30951,-0.629974 2.42261,-1.372103 1.37428,-0.916261 1.66343,-1.083552 2.39114,-1.383411 0.34609,-0.142607 0.85994,-0.416572 1.14188,-0.60881 0.66093,-0.450624 0.93861,-0.50232 1.21476,-0.226158 0.14611,0.146102 0.19182,0.248461 0.19182,0.429532 0,0.207281 -0.0465,0.282435 -0.36349,0.586896 -0.29687,0.285169 -0.58811,0.460671 -1.58885,0.957454 -0.67396,0.334555 -1.53684,0.799384 -1.91754,1.032954 -0.38069,0.23357 -1.07444,0.641066 -1.54165,0.905548 -0.46722,0.264481 -1.39375,0.810986 -2.05895,1.214455 -0.66521,0.40347 -1.79786,1.035297 -2.517,1.404061 -0.71914,0.368764 -1.68979,0.917695 -2.15701,1.219846 -0.46721,0.302151 -1.04769,0.658375 -1.28996,0.791612 -0.24226,0.133231 -0.89301,0.525026 -1.44612,0.870653 -1.12872,0.705312 -1.64068,0.980437 -1.82597,0.981268 -0.0692,0 -0.21079,-0.05138 -0.31462,-0.114856 z M 92.535872,73.587302 c -0.02298,-0.02267 -2.462845,-0.08245 -5.171909,-0.126698 -1.278324,-0.02088 -2.396762,-0.06556 -2.485417,-0.09925 -0.253605,-0.09642 -0.381663,-0.245388 -0.381663,-0.443966 0,-0.253423 0.09469,-0.406212 0.332218,-0.536053 0.176604,-0.09654 0.396703,-0.111488 1.712838,-0.116357 0.830607,-0.003 2.090676,-0.02379 2.800153,-0.04604 0.828078,-0.02597 1.560328,-0.01392 2.045057,0.03364 0.86974,0.08534 2.391217,0.09946 3.618175,0.03357 0.467217,-0.02509 1.245912,-0.062 1.730433,-0.08202 0.484521,-0.02002 0.923422,-0.04686 0.975334,-0.05966 0.05191,-0.01279 0.462498,-0.04629 0.912409,-0.07443 1.271221,-0.07953 2.86852,-0.0528 3.86988,0.06475 0.50182,0.05891 1.20973,0.115834 1.57312,0.126502 0.86195,0.0253 1.06972,0.14076 1.06972,0.594439 0,0.565612 -0.79735,0.783854 -1.96539,0.53795 -0.30214,-0.06361 -0.93107,-0.07573 -2.69105,-0.05189 -2.521916,0.03417 -4.269911,0.08126 -4.562046,0.122904 -0.809691,0.115404 -3.297725,0.205614 -3.381862,0.122609 z m 14.172348,-2.339248 c -0.20276,-0.257773 -0.13591,-0.552113 0.19242,-0.847105 0.30783,-0.276589 1.01654,-0.691252 1.75937,-1.029401 1.29177,-0.588044 2.27562,-1.12792 2.92443,-1.604763 0.67565,-0.496563 1.21356,-0.817105 2.55298,-1.521338 0.36501,-0.191914 0.92053,-0.504695 1.23448,-0.695069 0.31396,-0.190373 1.02053,-0.594099 1.57017,-0.897172 0.54964,-0.30307 1.32521,-0.75668 1.72349,-1.008019 0.39828,-0.251339 1.02123,-0.604608 1.38435,-0.785041 0.3631,-0.180433 0.91414,-0.509645 1.2245,-0.731581 1.38721,-0.991966 2.17293,-1.078551 2.17293,-0.239455 0,0.243895 -0.0301,0.297397 -0.30722,0.546571 -0.16896,0.151917 -0.65743,0.456289 -1.08545,0.676385 -0.42803,0.220095 -0.87735,0.475431 -0.99848,0.567413 -0.39857,0.302659 -1.02296,0.665967 -2.10798,1.226557 -0.58835,0.303976 -1.39516,0.765475 -1.79294,1.025556 -0.39777,0.26008 -1.0632,0.636005 -1.47873,0.835389 -0.93893,0.450523 -1.9206,1.00577 -2.75701,1.559401 -0.90122,0.596517 -1.29203,0.826039 -2.12008,1.245079 -0.398,0.20141 -1.21917,0.648286 -1.82482,0.993059 -1.44454,0.822319 -1.51844,0.856558 -1.84867,0.856558 -0.23228,0 -0.30549,-0.03032 -0.41774,-0.173024 z M 89.814029,70.600419 c -0.380696,-0.028 -1.612448,-0.04812 -2.737229,-0.04472 -1.802425,0.0054 -2.0691,-0.0064 -2.247699,-0.09973 -0.246276,-0.128731 -0.332218,-0.276815 -0.332218,-0.57242 0,-0.479449 0.466663,-0.664264 1.352882,-0.535785 0.507987,0.07365 3.024506,0.114705 8.778011,0.143219 0.910522,0.0045 3.28054,-0.06357 3.995724,-0.114781 0.448145,-0.0321 1.56538,-0.08668 2.48553,-0.121453 0.36339,-0.01373 1.00051,0.0035 1.41581,0.03849 0.95929,0.08061 1.14654,0.0835 1.76189,0.02719 0.42329,-0.03873 0.53845,-0.02796 0.72364,0.06768 0.27538,0.142231 0.38002,0.463557 0.24363,0.748135 -0.17078,0.356331 -0.59069,0.40211 -3.16963,0.345568 -1.32916,-0.02914 -6.773395,0.03914 -6.953196,0.08721 -0.239296,0.06398 -4.529818,0.0893 -5.317145,0.03139 z m 4.5392,-2.546191 c -0.254946,-0.254946 -0.199076,-0.668345 0.133527,-0.987947 0.37746,-0.362719 0.999861,-0.725358 2.918609,-1.700518 1.668898,-0.848179 3.284855,-1.789276 8.045475,-4.685506 1.35109,-0.821968 2.21803,-1.317115 5.60031,-3.198617 2.85891,-1.590359 5.26864,-2.995488 5.66323,-3.302265 0.55022,-0.427769 0.90829,-0.485431 1.20041,-0.193309 0.22665,0.22665 0.25221,0.593248 0.0585,0.839479 -0.069,0.08769 -0.51495,0.360294 -0.99106,0.605785 -0.47611,0.245493 -1.10718,0.625745 -1.40237,0.845006 -0.67663,0.502584 -1.1208,0.747115 -2.26005,1.244233 -0.69822,0.304674 -1.15439,0.561974 -1.96709,1.109538 -0.58193,0.392084 -1.60283,1.013783 -2.26868,1.381553 -0.66584,0.367769 -1.49378,0.858938 -1.83986,1.091485 -0.34609,0.232548 -1.01152,0.642318 -1.47873,0.9106 -0.46722,0.268282 -1.33086,0.79218 -1.91921,1.164219 -1.40125,0.886071 -1.87924,1.16616 -2.91475,1.70797 -0.47341,0.247699 -1.095505,0.590286 -1.382442,0.761304 -0.286937,0.171016 -0.909893,0.494415 -1.384346,0.718663 -0.474452,0.224247 -1.004223,0.475416 -1.177266,0.558153 -0.173044,0.08274 -0.541154,0.295823 -0.818023,0.473525 -0.657219,0.421821 -1.33758,0.751409 -1.551122,0.751409 -0.09368,0 -0.212963,-0.04264 -0.265083,-0.09476 z m -9.415873,-0.07616 c -0.190895,-0.06851 -0.376718,-0.295509 -0.416795,-0.509157 -0.02265,-0.120711 -0.0056,-0.458655 0.0379,-0.750986 0.04349,-0.29233 0.0733,-0.705808 0.06624,-0.918839 -0.0071,-0.21303 -0.01861,-2.355302 -0.02566,-4.760602 -0.0071,-2.405302 -0.03693,-4.826813 -0.06637,-5.381141 -0.03913,-0.736658 -0.03144,-1.185369 0.0286,-1.667507 0.113145,-0.908583 0.112258,-0.847582 0.0205,-1.411659 -0.04531,-0.278563 -0.08295,-0.596927 -0.08365,-0.707476 -0.003,-0.492052 0.619866,-0.737082 0.919275,-0.361588 0.312761,0.392243 0.307047,0.234434 0.298565,8.246308 -0.0058,5.4712 -0.02752,7.554301 -0.08048,7.714766 -0.115121,0.348816 -0.454147,0.595448 -0.698144,0.507881 z m 6.512063,-0.163237 c -0.333495,-0.333498 -0.362151,-0.546821 -0.37775,-2.812085 -0.0079,-1.142365 -0.05022,-2.378358 -0.09596,-2.800154 -0.114579,-1.056633 -0.11641,-4.531464 -0.003,-5.694694 0.05101,-0.523144 0.09127,-1.677521 0.09439,-2.705767 0.0054,-1.782568 0.0064,-1.795236 0.16275,-2.10568 0.11833,-0.234927 0.203599,-0.324151 0.344097,-0.36005 0.565777,-0.14457 0.841109,0.66903 0.762492,2.253136 -0.02254,0.454116 -0.05323,0.889298 -0.06821,0.96707 -0.09816,0.509689 -0.149477,4.618918 -0.06798,5.443618 0.02052,0.207651 0.05183,1.439404 0.06957,2.737229 0.03084,2.255077 0.04244,2.612147 0.131966,4.062571 0.04457,0.721935 -0.03012,0.961285 -0.35185,1.12766 -0.268117,0.13865 -0.367708,0.119934 -0.600498,-0.112854 z m -3.322115,0.07546 c -0.205305,-0.119436 -0.244085,-0.326092 -0.358848,-1.912215 -0.05851,-0.808635 -0.02791,-6.733332 0.03802,-7.362202 0.03498,-0.333572 0.04345,-4.535971 0.01237,-6.135168 -0.01355,-0.697323 0.08212,-0.951755 0.418109,-1.11198 0.196439,-0.09367 0.226694,-0.09245 0.449398,0.01811 0.152856,0.07588 0.285496,0.209114 0.3686,0.370239 0.125101,0.242557 0.13016,0.355701 0.139309,3.114777 0.0052,1.574695 -0.01405,3.117925 -0.04283,3.429403 -0.06084,0.658465 -0.111886,1.515983 -0.153567,2.579917 -0.01627,0.415304 -0.05112,1.208156 -0.07743,1.761895 -0.06677,1.404824 -0.06164,2.798125 0.01263,3.429401 0.03461,0.294174 0.06293,0.785171 0.06293,1.091104 0,0.508685 -0.0127,0.566519 -0.148554,0.676441 -0.162597,0.131566 -0.535654,0.157612 -0.720149,0.05028 z m 18.673556,-0.14746 c -0.085,-0.08495 -0.15845,-0.21945 -0.16334,-0.298892 -0.0356,-0.577822 0.13292,-0.742419 1.20812,-1.179972 0.5525,-0.224843 1.79097,-0.934697 2.41895,-1.386464 0.27687,-0.199181 0.84319,-0.553528 1.25849,-0.787439 0.7786,-0.438523 1.37018,-0.820835 2.29676,-1.484275 0.48309,-0.345894 1.32446,-0.788067 2.45407,-1.289699 0.44119,-0.195921 0.97289,-0.498936 1.83761,-1.047247 0.30121,-0.190994 0.94718,-0.511275 1.4355,-0.711737 0.48832,-0.200462 1.06831,-0.485503 1.28888,-0.633426 0.53939,-0.361746 0.7494,-0.465118 0.94494,-0.465118 0.25084,0 0.39059,0.10264 0.47084,0.345822 0.17399,0.527202 -0.1447,0.875288 -1.21085,1.322549 -0.74287,0.311642 -1.20179,0.57334 -2.28557,1.303365 -0.37839,0.254888 -0.90037,0.560009 -1.15993,0.678045 -0.94301,0.428832 -2.01117,1.005804 -3.39794,1.83541 -0.7787,0.465836 -1.57646,0.937994 -1.77282,1.049237 -0.19635,0.111245 -0.7202,0.463936 -1.1641,0.783759 -1.12544,0.810849 -1.23793,0.878345 -2.9968,1.79811 -0.5241,0.274067 -0.66844,0.322424 -0.96246,0.322424 -0.28335,0 -0.37382,-0.02793 -0.50035,-0.154452 z m -5.79886,-0.003 c -0.0743,-0.05202 -0.16691,-0.191173 -0.20587,-0.309228 -0.0869,-0.263187 0.017,-0.550371 0.28942,-0.800329 0.1943,-0.178268 1.50406,-0.921804 2.47755,-1.406474 0.71786,-0.3574 1.05595,-0.557163 2.31776,-1.369454 0.53068,-0.341629 1.32353,-0.807253 1.76189,-1.034721 0.82691,-0.429087 2.1237,-1.160563 3.1567,-1.780586 0.86089,-0.516723 1.82493,-1.064206 2.54845,-1.447291 1.07575,-0.569574 2.18946,-1.231189 3.19075,-1.895508 0.52926,-0.351145 1.23704,-0.773811 1.57286,-0.93926 0.33582,-0.165448 0.77147,-0.416019 0.9681,-0.556825 0.53707,-0.384593 0.94257,-0.417307 1.25836,-0.10152 0.18864,0.188636 0.20148,0.518076 0.0288,0.737653 -0.0677,0.0861 -0.43953,0.3181 -0.82624,0.515567 -0.38672,0.197467 -1.27236,0.74427 -1.96811,1.215118 -1.03521,0.700584 -1.52806,0.984126 -2.71327,1.560978 -0.79656,0.387691 -1.63235,0.830503 -1.8573,0.984026 -0.22496,0.153523 -0.69218,0.473645 -1.03826,0.711381 -0.34609,0.237737 -1.01152,0.613432 -1.47874,0.834877 -1.87846,0.890326 -2.04651,0.987137 -3.52379,2.029938 -1.20133,0.848018 -1.70093,1.158891 -2.45406,1.527017 -0.78098,0.381736 -1.139,0.592392 -1.72087,1.012523 -0.74433,0.537446 -1.45621,0.741786 -1.78411,0.512118 z m -6.772412,-3.054385 c -0.212611,-0.167241 -0.273962,-0.486887 -0.142312,-0.741474 0.142035,-0.274663 0.407855,-0.457013 1.232672,-0.845616 0.398,-0.187513 1.06343,-0.567878 1.478733,-0.845258 1.130759,-0.755232 1.239406,-0.817922 2.03468,-1.174051 0.403707,-0.180782 0.932225,-0.456191 1.174489,-0.612021 0.53678,-0.345275 0.73802,-0.435289 0.97315,-0.435289 0.26645,0 0.37381,0.05773 0.47644,0.2562 0.36174,0.699515 -0.23885,1.227315 -2.502791,2.199465 -0.336993,0.144709 -0.790052,0.397114 -1.006797,0.560899 -0.216738,0.163785 -0.648919,0.469084 -0.960396,0.678442 -1.440538,0.968249 -2.345704,1.282908 -2.757868,0.958703 z m 0.0077,-2.965531 c -0.126327,-0.09843 -0.238799,-0.375839 -0.238799,-0.588993 0,-0.213431 0.33999,-0.529262 0.901486,-0.83743 0.554311,-0.304224 0.798038,-0.329848 1.020584,-0.107302 0.240485,0.240488 0.217909,0.642826 -0.05005,0.891884 -0.540549,0.502411 -1.385825,0.834599 -1.633213,0.641841 z m 2.769834,-3.228164 c -0.0319,-0.02711 -1.482899,-0.0933 -2.076978,-0.09474 -0.660893,-0.0016 -0.853978,-0.116684 -0.91117,-0.543089 -0.0301,-0.224416 -0.0096,-0.286481 0.155947,-0.471837 l 0.190606,-0.213432 0.61877,0.009 c 0.642387,0.0094 2.621895,0.01058 4.740352,0.0029 0.674871,-0.0025 1.807521,-1.26e-4 2.516991,0.0053 0.70948,0.0053 1.56404,0.0036 1.89902,-0.0037 0.5325,-0.01175 0.63137,0.0031 0.78656,0.118444 0.10271,0.07631 0.20219,0.229271 0.23608,0.363017 0.0743,0.292936 -0.0693,0.512212 -0.46887,0.716406 -0.31223,0.15954 -0.8579,0.185965 -1.57184,0.07612 -0.52723,-0.08112 -2.97223,-0.07868 -3.974728,0.0039 -0.684471,0.05643 -2.087229,0.0772 -2.14074,0.03171 z m 9.750788,-1.146844 c -0.45648,-0.504406 0.19844,-1.180387 2.15376,-2.222999 0.46722,-0.249128 1.1468,-0.616251 1.51019,-0.815826 0.36339,-0.199576 1.09377,-0.581551 1.62306,-0.848834 0.52929,-0.267282 1.19445,-0.639551 1.47812,-0.827263 0.58222,-0.385258 0.89494,-0.496476 1.1371,-0.404406 0.21229,0.08071 0.37491,0.399917 0.32335,0.634682 -0.0606,0.275793 -0.37459,0.50799 -1.39583,1.032155 -0.51258,0.263086 -1.18681,0.663188 -1.49829,0.889115 -0.34854,0.252816 -1.13495,0.696321 -2.04506,1.153333 -0.81329,0.408407 -1.73076,0.907205 -2.03881,1.108441 -0.64438,0.420962 -1.05068,0.519184 -1.24759,0.301602 z M 94.205594,55.333904 c -0.07646,-0.07512 -0.157538,-0.210363 -0.180172,-0.300537 -0.05174,-0.206125 0.07476,-0.520423 0.24917,-0.619067 0.09572,-0.05414 0.749616,-0.07623 2.335315,-0.0789 1.211302,-0.002 2.499688,-0.03083 2.863079,-0.06398 0.663244,-0.0605 0.973694,-0.06212 3.859294,-0.0201 l 1.56253,0.02276 0.18363,0.205499 c 0.10099,0.113023 0.18363,0.249387 0.18363,0.303029 0,0.129868 -0.12257,0.353884 -0.24625,0.450055 -0.27753,0.215806 -0.55112,0.22709 -5.637222,0.232489 l -5.033984,0.0053 -0.13902,-0.136584 z m 12.603416,-1.363456 c -0.41235,-0.412342 -0.0703,-0.890769 1.02031,-1.427188 0.218,-0.107217 0.61106,-0.335108 0.87349,-0.506421 1.0615,-0.692955 1.67023,-0.872011 1.91922,-0.564531 0.063,0.07777 0.1145,0.236428 0.1145,0.35257 0,0.280558 -0.26217,0.536344 -0.94813,0.925058 -0.29183,0.165376 -0.75714,0.458851 -1.034,0.652166 -0.60797,0.424495 -1.08596,0.648405 -1.48506,0.695674 -0.26142,0.03096 -0.31758,0.01543 -0.46033,-0.127328 z m -4.64564,-1.334956 c -0.0258,-0.02707 -1.76721,-0.05173 -3.869878,-0.0548 -3.571367,-0.0052 -3.834002,-0.01304 -3.98971,-0.118775 -0.318285,-0.216139 -0.385326,-0.713236 -0.127629,-0.946447 0.168197,-0.152214 0.625622,-0.221351 1.175258,-0.177632 0.574365,0.04568 2.08054,0.04846 3.869876,0.0071 0.674869,-0.01559 1.580983,-3.2e-5 2.013593,0.03458 0.92025,0.07362 2.10092,0.08143 2.76869,0.01832 0.81964,-0.07747 1.2585,0.09581 1.2585,0.496888 0,0.226139 -0.30607,0.496501 -0.69756,0.616181 -0.36833,0.112602 -2.31633,0.213662 -2.40114,0.12457 z"
       id="path854" /></g></svg>
