<?xml version="1.0" encoding="UTF-8" standalone="no"?>
<!-- Created with Inkscape (http://www.inkscape.org/) -->

<svg
   width="30.157738mm"
   height="30.19445mm"
   viewBox="0 0 30.157738 30.19445"
   version="1.1"
   id="svg5"
   xml:space="preserve"
   sodipodi:docname="dsk_logo_simple.svg"
   xmlns:inkscape="http://www.inkscape.org/namespaces/inkscape"
   xmlns:sodipodi="http://sodipodi.sourceforge.net/DTD/sodipodi-0.dtd"
   xmlns="http://www.w3.org/2000/svg"
   xmlns:svg="http://www.w3.org/2000/svg"><sodipodi:namedview
     id="namedview6"
     pagecolor="#ffffff"
     bordercolor="#000000"
     borderopacity="0.25"
     inkscape:showpageshadow="2"
     inkscape:pageopacity="0.0"
     inkscape:pagecheckerboard="0"
     inkscape:deskcolor="#d1d1d1"
     inkscape:document-units="mm"
     showgrid="false" /><defs
     id="defs2" /><g
     id="layer1"
     inkscape:export-filename="wetransfer_liesl_01-pdf_2025-02-21_1403/dsk_logo_simple.svg"
     inkscape:export-xdpi="218.44"
     inkscape:export-ydpi="218.44"
     transform="translate(-90.011248,-84.280271)"><path
       style="fill:#000000;stroke-width:0.0455481"
       d="m 90.229458,114.41941 c -0.340763,-0.19543 -0.256773,-0.57777 0.207558,-0.94481 0.214755,-0.16974 0.987802,-0.57608 1.796749,-0.94442 0.175256,-0.0798 0.542815,-0.29162 0.816796,-0.47073 0.273981,-0.17911 0.755652,-0.46571 1.07038,-0.63691 0.314728,-0.17119 0.715383,-0.39491 0.890342,-0.49716 0.174964,-0.10224 0.372042,-0.1859 0.437954,-0.1859 0.163358,0 0.346416,0.15392 0.383419,0.3224 0.07017,0.31948 -0.0841,0.45778 -1.199887,1.0756 -0.342553,0.18968 -0.809699,0.47502 -1.038109,0.6341 -0.22841,0.15908 -0.771571,0.46199 -1.207024,0.67315 -0.435454,0.21114 -0.955708,0.49169 -1.15612,0.62343 -0.343196,0.2256 -0.728118,0.40798 -0.854514,0.40488 -0.03105,-7.8e-4 -0.09744,-0.0249 -0.147544,-0.0536 z m 3.9995,0.01 c -0.215998,-0.0881 -0.332815,-0.41767 -0.22319,-0.62966 0.122606,-0.2371 1.168026,-0.8735 1.434892,-0.8735 0.284553,0 0.4956,0.33767 0.396642,0.63462 -0.04014,0.12045 -0.138142,0.20997 -0.46091,0.42098 -0.633451,0.41412 -0.93809,0.53295 -1.147434,0.44756 z m 3.009636,-0.0181 c -0.201582,-0.0903 -0.24672,-0.25962 -0.213689,-0.80178 0.01984,-0.32573 0.0043,-0.61431 -0.05542,-1.02625 -0.07524,-0.51934 -0.07765,-0.64921 -0.02566,-1.38462 0.03657,-0.51729 0.04577,-1.09025 0.02538,-1.58026 -0.02069,-0.49721 -0.01357,-0.91862 0.02016,-1.19315 0.04315,-0.35113 0.03916,-0.53599 -0.02307,-1.07038 -0.0773,-0.66373 -0.07232,-1.19814 0.02457,-2.63605 0.04138,-0.61411 0.08353,-0.77976 0.226283,-0.88937 0.08743,-0.0671 0.343173,-0.0751 0.456947,-0.0142 0.218909,0.11716 0.312415,0.76773 0.232592,1.61829 -0.09739,1.03779 -0.107426,1.588 -0.04716,2.58607 0.04955,0.82051 0.05013,1.25387 0.0032,2.39616 -0.05183,1.26237 -0.04991,1.44845 0.0203,1.96385 0.09416,0.69129 0.107821,1.46466 0.02986,1.68997 -0.111256,0.32149 -0.396551,0.46606 -0.674317,0.34168 z m 2.360871,-0.008 c -0.269134,-0.18851 -0.335316,-0.70801 -0.220862,-1.73371 0.07372,-0.66062 0.07205,-0.71782 -0.06294,-2.15788 -0.06239,-0.66556 -0.05856,-0.99677 0.03114,-2.69256 0.06733,-1.27305 0.0702,-1.57276 0.02005,-2.09533 -0.11039,-1.15033 -0.06215,-1.68364 0.168697,-1.86523 0.162807,-0.12806 0.390515,-0.11508 0.50362,0.0287 0.20368,0.25894 0.21087,0.34416 0.21087,2.5023 0,1.12731 -0.008,2.4391 -0.018,2.91507 -0.01,0.47598 0.008,1.57268 0.0394,2.43711 0.0431,1.17986 0.0446,1.65399 0.006,1.90181 -0.0695,0.44804 -0.17008,0.68307 -0.327007,0.76422 -0.163363,0.0845 -0.225208,0.0837 -0.351126,-0.005 z m 2.353225,0.003 c -0.0656,-0.0356 -0.1573,-0.14244 -0.20379,-0.23731 -0.0747,-0.1525 -0.0884,-0.3466 -0.11805,-1.67557 -0.0322,-1.44234 -0.007,-2.70409 0.10386,-5.21526 0.0443,-1.00296 0.0413,-1.25086 -0.0221,-1.8164 -0.092,-0.82149 -0.0923,-1.09512 -0.001,-1.32279 0.13199,-0.32989 0.42962,-0.41989 0.65207,-0.19721 0.22958,0.22983 0.25669,0.57028 0.24218,3.04034 -0.007,1.20247 -0.0432,2.82501 -0.0803,3.60566 -0.052,1.09291 -0.056,1.52242 -0.0173,1.86748 0.0736,0.65639 0.074,1.36737 7.8e-4,1.6227 -0.0634,0.22114 -0.22644,0.39839 -0.36331,0.395 -0.0405,-10e-4 -0.12724,-0.031 -0.19283,-0.0666 z m 2.2513,0.0225 c -0.18654,-0.0751 -0.24376,-0.23494 -0.28757,-0.80321 -0.0513,-0.66485 -0.0333,-2.96225 0.0385,-4.92155 0.0352,-0.96042 0.04,-1.76202 0.0138,-2.32295 -0.022,-0.47108 -0.0309,-0.98973 -0.0199,-1.15256 0.011,-0.16284 0.002,-0.44525 -0.0208,-0.62758 -0.0523,-0.42445 -0.0287,-0.5725 0.11363,-0.71487 0.12885,-0.12885 0.37604,-0.15461 0.5822,-0.0607 0.23802,0.10845 0.25595,0.21177 0.28606,1.64873 0.032,1.5242 0.0292,1.83979 -0.0415,4.72898 -0.0399,1.62854 -0.0394,2.26447 0.002,2.71011 0.0539,0.58295 0.0188,1.08841 -0.0898,1.29134 -0.11726,0.2191 -0.35734,0.31249 -0.57645,0.22423 z m 2.3114,-0.0117 c -0.25089,-0.12697 -0.27866,-0.25469 -0.31127,-1.43147 -0.0331,-1.19372 -0.0231,-4.55346 0.0142,-4.77996 0.0564,-0.34283 0.43484,-0.49118 0.69061,-0.27075 l 0.1278,0.11014 0.003,1.63208 c 0.002,0.89764 0.021,2.16499 0.0429,2.81633 0.022,0.65134 0.0351,1.28422 0.0293,1.40641 -0.0131,0.27447 -0.1117,0.47397 -0.26259,0.53134 -0.14835,0.0564 -0.19885,0.0543 -0.33398,-0.0141 z m 2.04452,-0.009 c -0.25252,-0.13735 -0.24751,-0.072 -0.25212,-3.28076 -0.003,-2.05871 -0.0217,-3.11341 -0.0616,-3.46213 -0.0703,-0.61436 -0.0262,-0.84953 0.17917,-0.95573 0.30294,-0.15666 0.59568,-0.0253 0.68978,0.30958 0.0809,0.28793 0.0911,7.0125 0.011,7.21722 -0.0868,0.22158 -0.33575,0.29714 -0.56617,0.17182 z m 2.25728,0.0283 c -0.37322,-0.12136 -0.38033,-0.16753 -0.33744,-2.19316 0.0516,-2.43608 0.0601,-4.9175 0.0196,-5.73906 -0.0421,-0.85585 -0.003,-1.00948 0.28013,-1.09377 0.21709,-0.0647 0.38728,-0.008 0.50218,0.16736 0.11467,0.17497 0.15818,1.20267 0.17037,4.02368 0.0101,2.34298 -0.0614,4.44146 -0.15856,4.65481 -0.081,0.17786 -0.26701,0.24819 -0.4763,0.18014 z m 2.19348,-0.0549 c -0.21447,-0.1687 -0.26381,-0.45078 -0.3023,-1.72832 -0.0192,-0.63882 -0.0158,-1.69439 0.008,-2.34573 0.0305,-0.84786 0.0271,-1.43008 -0.0119,-2.04966 -0.0372,-0.59125 -0.0418,-1.13237 -0.0145,-1.70806 0.0219,-0.46345 0.0401,-1.11934 0.0403,-1.45754 4.5e-4,-0.54717 0.0115,-0.63567 0.1012,-0.80345 0.2523,-0.47173 0.81446,-0.26921 0.90364,0.32554 0.0153,0.10203 0.003,0.31791 -0.0269,0.47974 -0.0863,0.46408 -0.10014,6.42641 -0.0169,7.28587 0.0772,0.79743 0.0805,1.14736 0.0136,1.46668 -0.0668,0.31911 -0.19314,0.51819 -0.36744,0.57896 -0.18655,0.065 -0.18804,0.0648 -0.32642,-0.044 z m 2.2974,0.0378 c -0.17038,-0.0904 -0.2735,-0.26336 -0.31986,-0.53637 -0.0242,-0.14252 -0.0386,-1.62495 -0.0334,-3.43888 0.01,-3.46666 0.006,-3.41228 0.26306,-3.59234 0.12701,-0.089 0.35148,-0.0944 0.46106,-0.0112 0.18358,0.13939 0.21686,0.3449 0.21636,1.33609 -4.6e-4,0.52062 0.0238,1.33682 0.0535,1.81376 0.0423,0.67992 0.0418,1.00449 -0.002,1.50309 -0.10336,1.16611 -0.10995,1.38001 -0.0533,1.73112 0.10297,0.63835 0.0594,0.97997 -0.14677,1.15108 -0.10259,0.0851 -0.31952,0.10676 -0.43836,0.0437 z m 2.08573,-0.0107 c -0.24,-0.13415 -0.24617,-0.19596 -0.23665,-2.37036 0.005,-1.10227 0.01,-2.04156 0.0114,-2.08733 0.004,-0.12735 0.25097,-0.3495 0.38854,-0.3495 0.18429,0 0.36893,0.11712 0.44563,0.28267 0.0595,0.12851 0.0677,0.42791 0.0569,2.08583 -0.0129,1.98494 -0.0336,2.23592 -0.19668,2.3835 -0.11918,0.10786 -0.33047,0.13271 -0.46916,0.0552 z m 2.02182,-0.0234 c -0.0808,-0.0492 -0.16011,-0.14252 -0.17637,-0.2073 -0.0163,-0.0648 -0.0206,-0.41898 -0.01,-0.78712 0.0224,-0.75026 0.0748,-0.92215 0.30546,-1.00255 0.23625,-0.0824 0.44723,0.0201 0.58327,0.28312 0.0564,0.10909 0.0626,0.24503 0.0353,0.77443 -0.0182,0.35316 -0.0506,0.68822 -0.0719,0.74457 -0.0448,0.11834 -0.29487,0.28436 -0.42826,0.28436 -0.0501,0 -0.15716,-0.0403 -0.2379,-0.0895 z m -29.279331,-2.3449 c -0.07891,-0.0789 -0.111797,-0.162 -0.111797,-0.28244 0,-0.14807 0.03465,-0.20408 0.261901,-0.42339 0.278153,-0.26844 0.774992,-0.54933 1.676707,-0.94794 0.276227,-0.1221 0.757533,-0.38617 1.069574,-0.58681 0.312037,-0.20064 0.803054,-0.49464 1.091146,-0.65333 0.288091,-0.1587 0.673269,-0.37884 0.855948,-0.48921 0.18268,-0.11037 0.391655,-0.20237 0.464391,-0.20444 0.284265,-0.008 0.478892,0.25538 0.401998,0.54416 -0.04694,0.17632 -0.299611,0.3578 -1.119964,0.80446 -0.307509,0.16742 -0.813279,0.47685 -1.12394,0.6876 -0.329385,0.22347 -0.875976,0.53293 -1.311266,0.74242 -0.410538,0.19757 -0.874263,0.44602 -1.030498,0.55212 -0.570986,0.38775 -0.914724,0.46627 -1.1242,0.2568 z m 0.07039,-2.2404 c -0.184725,-0.0724 -0.24411,-0.38051 -0.11218,-0.58186 0.101198,-0.15444 0.511172,-0.42717 1.137012,-0.75637 0.300617,-0.15813 0.874523,-0.49229 1.275347,-0.74258 0.400823,-0.2503 0.962308,-0.56518 1.247744,-0.69975 0.285432,-0.13456 0.743308,-0.39094 1.017499,-0.56973 0.54107,-0.3528 0.680971,-0.38943 0.890328,-0.23313 0.172955,0.12913 0.226424,0.34237 0.13429,0.53558 -0.08809,0.18472 -0.660051,0.57876 -1.354068,0.93286 -0.26304,0.13421 -0.847194,0.46369 -1.29812,0.73218 -1.34754,0.80238 -1.75838,1.03516 -2.127811,1.20563 -0.343729,0.15861 -0.673483,0.23073 -0.810041,0.17717 z m 0.03416,-2.38847 c -0.117368,-0.0684 -0.216353,-0.28722 -0.216353,-0.47836 0,-0.25777 0.20748,-0.41386 1.24293,-0.93507 0.50633,-0.25487 1.035248,-0.54105 1.175373,-0.63594 0.140119,-0.0949 0.74477,-0.44784 1.343668,-0.7843 0.598894,-0.33647 1.160638,-0.65551 1.248318,-0.70897 0.364167,-0.22207 0.820308,-0.019 0.819698,0.36495 -4.56e-4,0.27308 -0.132887,0.37398 -1.187594,0.90468 -0.60701,0.30543 -1.249881,0.67018 -1.608376,0.91257 -0.397803,0.26895 -0.759751,0.47071 -1.084067,0.60427 -0.287878,0.11856 -0.615806,0.2961 -0.802334,0.43437 -0.464413,0.34429 -0.733197,0.43716 -0.931263,0.3218 z m 15.958261,-1.06948 c -0.27996,-0.23556 -0.21706,-0.59702 0.14348,-0.82462 0.23753,-0.14995 2.5954,-1.42958 3.70029,-2.00817 0.45092,-0.23614 1.10682,-0.61899 1.45754,-0.85079 0.7881,-0.52087 1.137,-0.72392 1.82783,-1.06373 0.29737,-0.14628 0.85054,-0.47098 1.22927,-0.72157 1.31635,-0.87096 1.92071,-1.069269 2.10253,-0.68991 0.0801,0.16704 0.0326,0.31579 -0.1768,0.55363 -0.2603,0.29573 -0.7651,0.59996 -2.31827,1.39722 -1.47742,0.75837 -1.76882,0.92291 -2.59624,1.46593 -0.28809,0.18907 -0.75952,0.47648 -1.04761,0.6387 -1.73092,0.9746 -2.37105,1.33947 -2.57347,1.46686 -0.59301,0.37319 -1.33324,0.75307 -1.46743,0.75307 -0.0865,0 -0.19704,-0.0459 -0.28112,-0.11662 z m -15.991666,-1.21671 c -0.259715,-0.13276 -0.231776,-0.45933 0.06351,-0.74227 0.254837,-0.24417 1.074844,-0.6664 1.294217,-0.6664 0.32775,0 0.542673,0.43091 0.323988,0.6496 -0.235935,0.23593 -1.144163,0.73793 -1.431954,0.79147 -0.07516,0.014 -0.187545,-6e-4 -0.249759,-0.0324 z m 16.124206,-1.08643 c -0.26175,-0.10345 -0.37416,-0.34518 -0.27351,-0.58815 0.0433,-0.10444 0.17627,-0.1965 0.63056,-0.43648 0.31666,-0.16726 0.95493,-0.52959 1.41838,-0.80517 0.46345,-0.27559 1.06151,-0.63138 1.32903,-0.79065 0.26751,-0.15927 0.81067,-0.45647 1.20702,-0.66044 0.39635,-0.20397 1.12033,-0.63189 1.60883,-0.95094 0.4885,-0.319044 1.19564,-0.753005 1.57141,-0.964357 0.37577,-0.211352 0.91897,-0.528624 1.20712,-0.705048 0.56053,-0.343204 1.07139,-0.610855 1.54854,-0.811323 0.16283,-0.06841 0.48397,-0.246032 0.71363,-0.39471 0.57083,-0.369538 0.8946,-0.410283 1.03914,-0.130771 0.11299,0.218491 0.0863,0.349432 -0.116,0.568888 -0.21011,0.227943 -0.70148,0.49747 -1.50013,0.822849 -0.34483,0.140488 -0.72546,0.345894 -1.11399,0.601159 -0.32461,0.213265 -0.87443,0.539827 -1.22181,0.725695 -0.34739,0.185869 -1.04515,0.616018 -1.55057,0.955878 -0.63465,0.42677 -1.13737,0.72371 -1.62495,0.9598 -0.38829,0.18802 -0.9827,0.51549 -1.32089,0.72771 -1.21684,0.7636 -3.09822,1.82925 -3.34779,1.89624 -0.0501,0.0135 -0.14191,0.004 -0.20402,-0.0202 z m -14.189168,-1.45457 c -0.200412,-0.0234 -0.671835,-0.0304 -1.047606,-0.0157 -0.695428,0.0272 -0.849021,0.006 -0.994989,-0.1404 -0.110135,-0.11013 -0.09607,-0.35265 0.02709,-0.46696 0.128386,-0.11916 0.502158,-0.22327 0.941329,-0.26221 0.185799,-0.0165 0.95625,0.006 1.712116,0.0495 1.295829,0.0749 1.463792,0.0751 2.941646,0.003 2.619848,-0.12717 4.651472,-0.17934 5.848862,-0.1502 3.50055,0.0852 3.37031,0.0722 3.48417,0.34709 0.0746,0.18007 0.0167,0.39487 -0.13676,0.5071 -0.10859,0.0795 -0.22654,0.0809 -2.73251,0.0335 -1.91023,-0.0362 -2.865545,-0.0359 -3.529973,0.001 -0.501029,0.0278 -1.546358,0.0607 -2.322953,0.0732 -0.776595,0.0125 -1.955152,0.0318 -2.619015,0.043 -0.663864,0.0112 -1.370998,10e-4 -1.571409,-0.0222 z m 14.165448,-1.12875 c -0.19982,-0.12217 -0.26873,-0.22423 -0.26873,-0.39801 0,-0.29287 0.37424,-0.57345 1.68072,-1.260143 0.45093,-0.237008 1.20931,-0.666925 1.68528,-0.955372 0.47598,-0.288447 1.16262,-0.674543 1.52586,-0.85799 0.36325,-0.183448 0.91666,-0.507265 1.2298,-0.719594 0.33963,-0.230287 0.88178,-0.536487 1.34367,-0.758892 0.52062,-0.250682 1.04294,-0.550992 1.59418,-0.916576 1.03207,-0.684466 1.16665,-0.761891 1.70306,-0.97978 0.24074,-0.09779 0.60361,-0.291477 0.80638,-0.430424 0.47647,-0.326501 0.68112,-0.364559 0.8817,-0.163976 0.26426,0.264267 0.1474,0.603061 -0.3144,0.911437 -0.14648,0.09782 -0.64246,0.363797 -1.10218,0.591067 -0.45972,0.227271 -1.07108,0.560851 -1.35858,0.741289 -0.28749,0.180437 -0.7212,0.437961 -0.9638,0.572275 -0.2426,0.134314 -0.91373,0.529095 -1.4914,0.877291 -0.57768,0.348196 -1.45918,0.84029 -1.9589,1.093542 -0.49972,0.253253 -1.15432,0.622822 -1.45466,0.821265 -0.30034,0.198442 -0.70684,0.448251 -0.90333,0.555121 -0.1965,0.10687 -0.66471,0.38935 -1.04048,0.62772 -0.7965,0.50526 -1.21957,0.7337 -1.35837,0.73347 -0.0545,0 -0.16066,-0.0378 -0.23582,-0.0837 z m -10.554177,-1.03425 c -0.01374,-0.0137 -1.211083,-0.0451 -2.660765,-0.0698 -1.582399,-0.0269 -2.695112,-0.0639 -2.784231,-0.0925 -0.208119,-0.0669 -0.284261,-0.15848 -0.284261,-0.341788 0,-0.202325 0.150363,-0.35743 0.416081,-0.429207 0.131639,-0.03556 0.506632,-0.04857 1.10978,-0.0385 0.501029,0.0084 1.331143,-0.0022 1.844697,-0.02338 0.755156,-0.03121 1.107962,-0.02344 1.844698,0.04064 0.798982,0.06949 1.045338,0.07269 2.004116,0.02599 1.615864,-0.0787 2.56239,-0.133252 3.302232,-0.190328 0.74823,-0.05772 1.71289,-0.03065 2.55069,0.07159 0.31315,0.03821 0.76986,0.06966 1.01491,0.06987 0.64261,5.7e-4 0.85256,0.11059 0.85256,0.44674 0,0.419073 -0.56227,0.558913 -1.52586,0.379493 -0.38743,-0.0721 -4.04131,-0.0118 -5.330499,0.088 -1.086545,0.0841 -2.300675,0.11675 -2.354148,0.0633 z m 10.349217,-1.660299 c -0.0581,-0.05813 -0.0911,-0.151827 -0.0911,-0.258888 0,-0.327446 0.5065,-0.685265 1.82192,-1.287112 0.80796,-0.369662 1.30533,-0.643251 1.6668,-0.916847 0.53486,-0.404829 0.82279,-0.583079 1.62078,-1.003355 0.43394,-0.228543 1.00419,-0.544 1.26723,-0.701015 0.26304,-0.157015 0.8161,-0.474755 1.22901,-0.706088 0.41292,-0.231333 0.9892,-0.570118 1.28064,-0.752856 0.29144,-0.182739 0.68604,-0.404397 0.87689,-0.492575 0.19085,-0.08818 0.56766,-0.312885 0.83735,-0.49935 0.59307,-0.410058 0.90355,-0.57134 1.17022,-0.607891 0.17524,-0.02402 0.21615,-0.01247 0.31855,0.08994 0.13918,0.139171 0.16041,0.423724 0.0448,0.600171 -0.0882,0.134583 -0.49563,0.39648 -1.04992,0.67486 -0.22649,0.113755 -0.5639,0.315949 -0.7498,0.449321 -0.18589,0.133372 -0.72712,0.445611 -1.20274,0.693866 -0.47561,0.248254 -1.11812,0.614419 -1.42778,0.813698 -0.30967,0.19928 -0.75214,0.450695 -0.98326,0.558701 -0.69509,0.324818 -1.41708,0.733464 -2.2279,1.260991 -0.42241,0.274823 -1.0988,0.66882 -1.50309,0.875548 -0.40428,0.206728 -1.01177,0.5366 -1.34997,0.73305 -0.33819,0.196449 -0.70548,0.404374 -0.8162,0.462056 -0.26191,0.136453 -0.60334,0.142876 -0.73243,0.01378 z m -12.275209,-0.51001 c -0.300617,-0.02274 -0.987255,-0.03209 -1.525861,-0.02078 -0.538606,0.01131 -1.222793,0.0062 -1.520413,-0.01132 -0.515933,-0.0304 -0.546158,-0.03773 -0.649061,-0.157361 -0.153228,-0.178138 -0.148536,-0.451499 0.01028,-0.598685 0.16001,-0.148292 0.431709,-0.180802 0.914847,-0.109462 0.272769,0.04028 1.037658,0.06231 2.383048,0.06864 1.089738,0.0051 2.626986,0.01425 3.416107,0.02028 1.319278,0.01007 2.230795,-0.01697 4.645902,-0.137808 0.60257,-0.03015 1.10056,-0.02901 1.54864,0.0035 0.36324,0.02639 0.88591,0.03525 1.16147,0.01969 0.42912,-0.02423 0.52391,-0.01656 0.66045,0.05344 0.1882,0.09649 0.26741,0.320435 0.18675,0.528026 -0.0848,0.218261 -0.30192,0.276784 -1.02939,0.277464 -0.35072,3.19e-4 -1.11935,0.0016 -1.70805,0.0028 -0.58871,0.0012 -1.57255,-0.0041 -2.18631,-0.01191 -0.657363,-0.0083 -1.600072,0.01508 -2.294102,0.05693 -1.262821,0.07616 -3.124685,0.08382 -4.014308,0.01652 z m 3.302237,-1.858491 c -0.155898,-0.155897 -0.123358,-0.419323 0.07971,-0.645266 0.239114,-0.266051 0.579745,-0.476004 1.628344,-1.003656 1.656128,-0.833352 2.330258,-1.218328 5.169718,-2.952271 1.93359,-1.180769 2.78887,-1.675627 5.48854,-3.17565 2.02026,-1.122518 3.40198,-1.929035 3.80327,-2.219985 0.46737,-0.338866 0.69813,-0.380226 0.91446,-0.163899 0.10498,0.104977 0.13314,0.173691 0.13314,0.324845 0,0.265674 -0.17417,0.418236 -0.87417,0.765738 -0.30833,0.153063 -0.72457,0.403002 -0.92498,0.555419 -0.46826,0.356124 -0.75302,0.513408 -1.60879,0.888613 -0.44998,0.197287 -0.86251,0.41819 -1.16148,0.621948 -0.88173,0.600932 -1.19564,0.795089 -1.96673,1.216441 -0.42587,0.232713 -0.98412,0.564379 -1.24054,0.737036 -0.25642,0.172656 -0.73579,0.468222 -1.06526,0.656812 -0.32948,0.18859 -1.05582,0.629365 -1.6141,0.979499 -0.55826,0.350134 -1.30869,0.792877 -1.66761,0.983874 -0.63056,0.335551 -1.09885,0.594342 -1.63943,0.906003 -0.14194,0.08184 -0.56212,0.287414 -0.933743,0.456839 -0.371608,0.169425 -0.883787,0.437913 -1.138178,0.596638 -0.565926,0.353107 -0.999261,0.562034 -1.165817,0.562082 -0.06889,2e-5 -0.166251,-0.04096 -0.216353,-0.09106 z m -6.957257,-0.161483 -0.161486,-0.161483 0.03558,-0.396481 c 0.02919,-0.325285 0.03298,-2.963599 0.01245,-8.663459 -0.0013,-0.363246 0.0057,-0.906407 0.01558,-1.207025 0.0099,-0.300617 0,-0.684264 -0.02235,-0.852547 -0.04845,-0.367817 0.0096,-0.549017 0.201313,-0.628426 0.294851,-0.122132 0.541854,0.113164 0.632891,0.602899 0.0393,0.211431 0.04812,1.674713 0.03381,5.615076 -0.02113,5.820756 -0.0073,5.538293 -0.28176,5.754185 -0.175269,0.137867 -0.279451,0.123842 -0.46603,-0.06274 z m 2.550438,0.09146 c -0.07745,-0.03256 -0.161354,-0.09758 -0.186456,-0.144482 -0.163203,-0.304952 -0.229571,-3.132905 -0.139268,-5.934489 0.06282,-1.949144 0.07584,-3.640353 0.03769,-4.89642 -0.02222,-0.731432 0.02214,-0.878984 0.304794,-1.013772 0.153087,-0.073 0.168405,-0.07239 0.326161,0.01311 0.09105,0.04934 0.207426,0.161443 0.258631,0.249123 0.08904,0.152466 0.09376,0.242848 0.108318,2.072438 0.01117,1.403433 -0.004,2.198146 -0.05673,2.9834 -0.03957,0.588709 -0.104497,1.859501 -0.144278,2.823981 -0.06601,1.600365 -0.06603,1.812824 0,2.431325 0.09532,0.895692 0.09368,1.176258 -0.0076,1.299201 -0.114517,0.139028 -0.329008,0.188936 -0.50107,0.116589 z m 2.365663,-0.04368 c -0.275311,-0.231657 -0.294569,-0.35254 -0.304799,-1.913189 -0.0051,-0.776595 -0.03732,-1.71944 -0.07163,-2.095212 -0.0833,-0.912451 -0.0839,-3.379677 -10e-4,-4.327069 0.03505,-0.400823 0.06579,-1.27193 0.06832,-1.935793 0.0046,-1.19199 0.006,-1.209861 0.11847,-1.434765 0.139031,-0.278064 0.293749,-0.352823 0.478984,-0.23145 0.301269,0.197396 0.393955,0.829249 0.301305,2.053998 -0.111183,1.469794 -0.14865,2.934371 -0.09553,3.734319 0.02829,0.425874 0.07108,1.727411 0.09511,2.892303 0.02402,1.164893 0.05467,2.299548 0.0681,2.521457 0.02716,0.448776 -0.0167,0.615503 -0.199824,0.75955 -0.152878,0.120253 -0.294728,0.112764 -0.45744,-0.02415 z m 11.116668,-0.04739 c -0.13514,-0.09465 -0.20826,-0.375515 -0.145,-0.556972 0.0592,-0.16986 0.26862,-0.311898 0.74845,-0.507675 0.57834,-0.235964 1.27503,-0.638512 2.07244,-1.197457 0.16284,-0.114138 0.56252,-0.355922 0.88819,-0.537298 0.32567,-0.181376 0.72199,-0.424703 0.8807,-0.540728 0.91427,-0.668336 0.98557,-0.708765 2.54013,-1.440242 0.22807,-0.107312 0.62447,-0.331259 0.88089,-0.497659 0.56586,-0.367204 0.74557,-0.459749 1.41628,-0.729347 0.28675,-0.115263 0.65522,-0.298573 0.81881,-0.407354 0.16359,-0.108782 0.36258,-0.231469 0.44219,-0.272638 0.31005,-0.16033 0.57064,-0.05253 0.62933,0.260342 0.0603,0.321328 -0.20476,0.591821 -0.82858,0.845622 -0.55138,0.224329 -0.80519,0.364994 -1.58979,0.881066 -0.39944,0.262733 -0.94146,0.573754 -1.2045,0.691156 -0.26304,0.117402 -0.69347,0.333202 -0.95651,0.479555 -1.04479,0.581309 -2.94207,1.74334 -3.51566,2.153243 -0.63104,0.45095 -0.9413,0.635991 -1.91747,1.143602 -0.50158,0.260821 -0.61536,0.302774 -0.82112,0.302774 -0.14113,0 -0.27975,-0.02864 -0.33878,-0.06999 z m -4.26056,-0.06721 c -0.16825,-0.132348 -0.19662,-0.323893 -0.0827,-0.55804 0.12859,-0.2642 0.28315,-0.362764 1.87622,-1.196501 0.44063,-0.230605 1.17042,-0.656895 1.62177,-0.947311 0.45134,-0.290416 1.17527,-0.714218 1.60875,-0.941783 0.43346,-0.227565 1.30241,-0.717458 1.93098,-1.088652 0.62857,-0.371193 1.58353,-0.916401 2.12214,-1.211572 1.16069,-0.636093 1.47948,-0.826267 2.22033,-1.324548 0.30681,-0.206352 0.78848,-0.492947 1.07038,-0.636878 0.28191,-0.143932 0.60275,-0.330286 0.71297,-0.41412 0.24554,-0.186738 0.49002,-0.264683 0.70418,-0.224506 0.3114,0.05842 0.45179,0.429295 0.25648,0.677588 -0.0503,0.06398 -0.3219,0.233331 -0.60351,0.37634 -0.28161,0.143011 -0.82971,0.47868 -1.21801,0.745933 -1.00576,0.692231 -1.05653,0.721771 -2.14128,1.245912 -0.73266,0.354021 -1.1616,0.596831 -1.70063,0.962694 -0.93457,0.634332 -1.05293,0.702391 -1.84578,1.061378 -0.8323,0.376849 -1.14788,0.562576 -2.14658,1.263319 -0.97583,0.684695 -1.26504,0.862773 -1.97031,1.213234 -0.30313,0.150631 -0.74662,0.410159 -0.98553,0.57673 -0.70305,0.49017 -1.16783,0.626941 -1.42992,0.420783 z m -4.870193,-2.182881 c -0.159186,-0.126144 -0.20488,-0.354715 -0.108259,-0.541561 0.100957,-0.195224 0.301219,-0.335774 0.824457,-0.578625 0.248451,-0.115314 0.790656,-0.431281 1.204893,-0.702148 0.811462,-0.530605 0.931048,-0.597356 1.472382,-0.821852 0.19516,-0.08093 0.51286,-0.25045 0.706,-0.376702 0.4132,-0.270105 0.59528,-0.352542 0.77867,-0.352542 0.19658,0 0.27385,0.04112 0.34849,0.18545 0.13328,0.257735 0.0578,0.512747 -0.22529,0.761317 -0.23775,0.208747 -0.49971,0.350637 -1.27874,0.692637 -0.53285,0.233923 -0.81848,0.39261 -1.177039,0.653915 -1.341819,0.977867 -2.209816,1.346167 -2.545564,1.080111 z m 0.02012,-2.128569 c -0.08661,-0.03485 -0.192623,-0.265573 -0.192623,-0.419239 0,-0.196932 0.165458,-0.364431 0.602096,-0.609519 0.520127,-0.291949 0.748637,-0.28274 0.881619,0.03553 0.120197,0.287674 -0.0015,0.474299 -0.505747,0.775157 -0.400568,0.239027 -0.597414,0.293685 -0.785345,0.21807 z m 1.021748,-2.399039 -0.994711,-0.05285 -0.10983,-0.127797 c -0.154918,-0.18026 -0.146359,-0.39921 0.02301,-0.588866 l 0.132837,-0.14875 0.470675,0.0053 c 0.477973,0.0054 1.718721,0.0048 3.408524,-0.0017 0.51355,-0.002 1.30267,0.005 1.7536,0.01558 0.45093,0.01053 1.03022,0.0024 1.28732,-0.01804 0.40058,-0.03188 0.49267,-0.02582 0.64382,0.04234 0.36575,0.164928 0.37002,0.586684 0.008,0.811695 -0.15196,0.09451 -0.20456,0.100158 -0.77788,0.08352 -0.97192,-0.0282 -2.80373,-0.0261 -3.87159,0.0044 -0.559085,0.01599 -1.406107,0.0053 -1.973996,-0.02484 z m 8.119245,-0.729403 c -0.0591,-0.02944 -0.13874,-0.109469 -0.17708,-0.177839 -0.0649,-0.115724 -0.0622,-0.138445 0.0388,-0.329033 0.11641,-0.219596 0.32766,-0.411957 0.74577,-0.679102 0.29938,-0.191285 1.94997,-1.088826 3.13539,-1.70494 0.44073,-0.229065 0.93626,-0.506968 1.10118,-0.617562 0.52097,-0.349345 0.77972,-0.378532 0.94549,-0.106653 0.21083,0.345772 0.0368,0.559606 -0.79448,0.976158 -0.57537,0.288318 -0.73331,0.383468 -1.41412,0.851969 -0.17441,0.120022 -0.78234,0.451004 -1.35096,0.735515 -0.56861,0.284511 -1.1888,0.62244 -1.37822,0.750954 -0.41286,0.280127 -0.69388,0.379272 -0.85181,0.300533 z m -9.183731,-1.516443 c -0.210815,-0.208094 -0.190104,-0.510769 0.04492,-0.656548 0.139901,-0.08678 0.197264,-0.08962 1.218726,-0.06043 0.822407,0.0235 1.371166,0.0111 2.357565,-0.05327 1.09911,-0.07173 1.38967,-0.07613 2.00258,-0.03033 0.404,0.03019 0.9957,0.04124 1.35558,0.02532 0.72573,-0.0321 0.87446,0.0074 0.97919,0.260261 0.0911,0.219909 0.0182,0.364254 -0.25139,0.498066 l -0.22774,0.113026 -3.6894,0.0016 -3.689396,0.0016 -0.10063,-0.09933 z m 9.117081,-0.993297 c -0.28579,-0.285785 -0.0605,-0.627708 0.64657,-0.981162 0.22171,-0.110835 0.57139,-0.310708 0.77707,-0.44416 0.4282,-0.277824 0.78141,-0.447252 1.02412,-0.491236 0.14252,-0.02583 0.18609,-0.01269 0.28467,0.0859 0.25801,0.258015 0.10943,0.582296 -0.38838,0.847625 -0.15494,0.08258 -0.53433,0.319921 -0.84309,0.527418 -0.833,0.559802 -1.26549,0.691085 -1.50096,0.455615 z m -3.35736,-0.962637 c -0.0148,-0.01476 -1.27359,-0.03013 -2.79742,-0.03416 -2.995241,-0.0079 -2.910945,-8.07e-4 -3.04339,-0.256933 -0.159651,-0.308723 -0.02337,-0.556158 0.350479,-0.636333 0.176084,-0.03776 0.402085,-0.03658 0.887204,0.0046 0.517435,0.04396 0.882257,0.0433 1.778826,-0.0033 0.935561,-0.04858 1.263821,-0.04806 1.924981,0.0031 0.79769,0.06168 1.47001,0.07173 2.37006,0.03543 0.5377,-0.02168 0.69894,0.03433 0.75627,0.262747 0.0745,0.296834 -0.25095,0.528415 -0.84778,0.603251 -0.41229,0.0517 -1.33468,0.06611 -1.37923,0.02156 z"
       id="path1624" /></g></svg>
